<svg width="32" height="32" viewBox="0 0 32 32" fill="none" xmlns="http://www.w3.org/2000/svg">
<path d="M16.3624 0.000915527C16.579 0.0758958 16.7956 0.134214 17.0039 0.234188C17.887 0.667407 18.3702 1.38389 18.3952 2.35863C18.4202 3.29172 18.0036 4.03319 17.1872 4.49973C16.9705 4.6247 16.9206 4.758 16.9206 4.98294C16.9289 5.7744 16.9289 6.56586 16.9289 7.38231C18.5951 7.58226 20.0864 8.19876 21.411 9.24849C22.0275 8.62365 22.6441 8.02381 23.2439 7.39897C23.3105 7.33232 23.2855 7.15737 23.2606 7.04073C22.9356 5.82439 23.5855 4.55805 24.7518 4.12483C25.9265 3.69161 27.2595 4.21648 27.776 5.36617C28.1926 6.2826 28.0926 7.1657 27.4428 7.9405C26.7846 8.72363 25.9265 8.97356 24.9351 8.71529C24.7352 8.66531 24.6185 8.6903 24.4769 8.83193C23.9104 9.41511 23.3272 9.98163 22.7357 10.5731C23.7771 11.8895 24.4019 13.3807 24.6019 15.0636C25.4933 15.0636 26.3681 15.072 27.2428 15.0553C27.3262 15.0553 27.4178 14.9053 27.4761 14.8137C28.0343 13.8473 29.1423 13.3891 30.2087 13.6807C31.2751 13.9722 32.0083 14.9303 31.9999 16.0384C31.9916 17.1131 31.2668 18.0462 30.2171 18.3378C29.184 18.6294 28.076 18.1878 27.5178 17.263C27.4595 17.1631 27.4095 17.0631 27.3511 16.9548C26.4431 16.9548 25.5433 16.9548 24.6102 16.9548C24.4103 18.6127 23.8021 20.0956 22.744 21.4286C23.2189 21.9035 23.7188 22.3617 24.1687 22.8532C24.4852 23.2032 24.7602 23.3448 25.2767 23.2281C26.5514 22.9532 27.8594 23.9946 28.001 25.2776C28.1509 26.6939 27.1512 27.9269 25.7849 28.0019C24.0603 28.0935 22.8273 26.5606 23.2856 24.9027C23.3105 24.8027 23.3022 24.6444 23.2356 24.5778C22.6441 23.9613 22.0359 23.3614 21.4194 22.7449C20.1031 23.7863 18.6118 24.4028 16.9455 24.6028C16.9455 25.5359 16.9455 26.4356 16.9455 27.3437C17.7703 27.752 18.2785 28.3935 18.3952 29.3182C18.5618 30.5929 17.6287 31.7759 16.3041 31.9759C15.0627 32.1591 13.813 31.2344 13.6214 29.993C13.4548 28.9267 13.9213 27.9852 14.8544 27.4437C14.9461 27.3937 15.046 27.2771 15.046 27.1854C15.0627 26.4273 15.0544 25.6692 15.0544 24.9027C15.0544 24.8194 15.0544 24.7361 15.0544 24.6111C13.3965 24.4028 11.9052 23.803 10.5722 22.7366C9.95572 23.3614 9.33088 23.9696 8.73104 24.6028C8.67272 24.6611 8.68938 24.8111 8.71438 24.911C9.08928 26.2607 8.32281 27.6103 6.9815 27.9436C5.65685 28.2768 4.34053 27.4604 4.03227 26.1191C3.63238 24.3612 5.28195 22.7949 7.03982 23.2865C7.2481 23.3448 7.37306 23.3115 7.52302 23.1615C8.08954 22.5783 8.66439 22.0118 9.2559 21.4286C8.21451 20.1123 7.598 18.6377 7.39806 16.9465C7.2231 16.9465 7.06481 16.9465 6.89819 16.9465C6.22337 16.9465 5.54021 16.9381 4.86539 16.9548C4.77375 16.9548 4.63212 17.0131 4.59046 17.0798C4.01561 18.0878 3.16584 18.5627 2.01614 18.3794C0.924757 18.1961 0.283259 17.5047 0.0333246 16.4383C0.0333246 16.4216 0.00833115 16.4049 0 16.3883C0 16.1383 0 15.8884 0 15.6385C0.0249934 15.5635 0.0499869 15.4885 0.0749803 15.4052C0.349908 14.4804 0.94975 13.8723 1.89117 13.6557C2.83259 13.4474 3.72402 13.689 4.24888 14.4888C4.61545 15.0553 5.03201 15.1136 5.57354 15.0803C5.89845 15.0636 6.21503 15.0803 6.53995 15.0803C6.81488 15.0803 7.09814 15.0803 7.38973 15.0803C7.58967 13.3974 8.20618 11.9145 9.24757 10.5981C8.66439 10.015 8.08954 9.44843 7.52302 8.86525C7.38139 8.71529 7.25643 8.66531 7.03982 8.73196C5.87346 9.0652 4.65711 8.48202 4.1739 7.37398C3.6907 6.24927 4.09892 4.95795 5.13199 4.33311C5.97343 3.82491 7.04815 3.8749 7.83128 4.46641C8.63107 5.06625 8.97264 6.08265 8.71438 7.04906C8.68105 7.1657 8.67272 7.34065 8.73104 7.4073C9.32255 8.03214 9.93906 8.64031 10.5556 9.25682C11.8802 8.19876 13.3715 7.59059 15.0377 7.39064C15.0377 6.56586 15.0294 5.7744 15.046 4.99127C15.046 4.758 14.9961 4.63303 14.7795 4.50807C13.9297 4.01653 13.5131 3.25006 13.5798 2.27532C13.6547 1.23392 14.2213 0.525778 15.196 0.142545C15.3293 0.0925581 15.4709 0.0509024 15.6042 0.00924667C15.8625 0.000915527 16.1124 0.000915527 16.3624 0.000915527ZM16.0041 9.22349C12.2718 9.20683 9.23924 12.2144 9.20592 15.9717C9.17259 19.7041 12.2301 22.7699 15.9791 22.7783C19.7198 22.7783 22.744 19.7541 22.7607 16.0134C22.7773 12.2727 19.7531 9.23182 16.0041 9.22349ZM15.9791 2.95014C16.2791 2.95847 16.5207 2.7252 16.529 2.43361C16.5373 2.13369 16.2791 1.87542 15.9791 1.87542C15.6875 1.87542 15.4459 2.12536 15.4459 2.40862C15.4459 2.70854 15.6792 2.94181 15.9791 2.95014ZM2.94089 16.005C2.94089 15.7135 2.70762 15.4635 2.42436 15.4552C2.12444 15.4469 1.86618 15.7051 1.87451 16.005C1.88284 16.2966 2.12444 16.5382 2.41603 16.5382C2.69929 16.5382 2.94089 16.2966 2.94089 16.005ZM30.1088 15.9967C30.1088 15.7051 29.8672 15.4552 29.5756 15.4552C29.284 15.4469 29.0424 15.6885 29.034 15.9801C29.0257 16.2883 29.2756 16.5466 29.5756 16.5382C29.8588 16.5382 30.1088 16.2883 30.1088 15.9967ZM26.1181 25.6025C26.1181 25.3026 25.8932 25.061 25.6016 25.0527C25.3017 25.0443 25.0434 25.3026 25.0518 25.6025C25.0601 25.8941 25.2934 26.1274 25.5933 26.1274C25.8932 26.1274 26.1181 25.9108 26.1181 25.6025ZM15.9875 30.118C16.2791 30.118 16.529 29.8764 16.529 29.5848C16.5373 29.2932 16.2957 29.0516 16.0041 29.0433C15.6959 29.035 15.4376 29.2766 15.4459 29.5848C15.4459 29.8681 15.6959 30.118 15.9875 30.118ZM6.38166 6.93243C6.67325 6.93243 6.91485 6.69083 6.92318 6.40757C6.93151 6.11598 6.69824 5.87437 6.40665 5.85771C6.09007 5.84938 5.84846 6.07432 5.84846 6.3909C5.8568 6.69916 6.08174 6.93243 6.38166 6.93243ZM25.5849 6.93243C25.8765 6.93243 26.1181 6.69916 26.1181 6.39924C26.1265 6.09098 25.9015 5.86604 25.6016 5.85771C25.285 5.84938 25.0434 6.09098 25.0434 6.39924C25.0518 6.69083 25.3017 6.93243 25.5849 6.93243ZM6.39832 26.1274C6.69824 26.1191 6.93151 25.8858 6.92318 25.5859C6.92318 25.2943 6.67325 25.0527 6.38166 25.0527C6.0734 25.0527 5.84013 25.3026 5.84846 25.6109C5.86513 25.9191 6.0984 26.1357 6.39832 26.1274Z" fill="#073348"/>
<path d="M15.9875 10.7564C17.3288 12.331 18.6201 13.8806 19.3616 15.7968C19.9031 17.2047 19.6449 18.496 18.6201 19.5791C17.6121 20.6455 16.3457 20.9954 14.9378 20.5622C13.5048 20.1289 12.6634 19.1209 12.3801 17.6546C12.2385 16.9131 12.3968 16.205 12.6967 15.5218C13.4881 13.7473 14.6962 12.2477 15.9875 10.7564ZM16.0125 13.739C15.9625 13.764 15.9375 13.764 15.9292 13.7806C15.8625 13.8639 15.8042 13.9472 15.7459 14.0305C15.171 14.872 14.5712 15.7051 14.2713 16.6965C14.0713 17.3547 14.3546 18.0878 14.9378 18.5127C15.5376 18.9543 16.3374 18.9709 16.9539 18.5627C17.5621 18.1628 17.9037 17.413 17.712 16.7465C17.3871 15.6135 16.6873 14.6804 16.0125 13.739Z" fill="#073348"/>
</svg>
