<svg width="32" height="32" viewBox="0 0 32 32" fill="none" xmlns="http://www.w3.org/2000/svg">
<g clip-path="url(#clip0_322_1565)">
<path d="M31.9998 23.5039C30.6332 24.0206 29.2582 24.5289 27.8665 25.0539C27.2915 23.7789 26.7415 22.5456 26.1665 21.2623C26.7332 21.0039 27.2832 20.7539 27.8748 20.4956C28.0582 20.8873 28.2332 21.2706 28.4082 21.6623C29.8165 19.0873 30.8248 12.8623 26.8665 7.62061C27.3498 7.25394 27.8332 6.88728 28.3665 6.47894C31.7998 11.3373 32.4165 16.5289 30.3582 22.1123C30.6915 21.9956 30.9998 21.8873 31.3332 21.7706C31.5582 22.3373 31.7748 22.8956 31.9998 23.4539C31.9998 23.4623 31.9998 23.4789 31.9998 23.5039Z" fill="#073348"/>
<path d="M0 15.004C0.075 14.4373 0.141667 13.8706 0.233333 13.3123C0.491667 11.729 1 10.229 1.73333 8.80396C1.76667 8.74562 1.78333 8.67895 1.825 8.57062C1.49167 8.64562 1.19167 8.72062 0.858333 8.79562C0.708333 8.18729 0.566667 7.59562 0.408333 6.97896C1.81667 6.62896 3.2 6.27896 4.6 5.92896C5 7.16229 5.39167 8.38729 5.8 9.65395C5.2 9.84562 4.625 10.0373 4.025 10.229C3.90833 9.88729 3.8 9.56229 3.69167 9.22896C2.74167 10.3123 1.85 13.7456 1.88333 16.2206C1.925 18.7206 2.6 21.0373 3.89167 23.204C3.35 23.529 2.83333 23.8456 2.29167 24.1706C1.59167 23.029 1.06667 21.8456 0.691667 20.604C0.358333 19.504 0.141667 18.3873 0.0583333 17.2373C0.05 17.154 0.025 17.079 0.00833333 16.9956C0 16.3373 0 15.6706 0 15.004Z" fill="#073348"/>
<path d="M15.5582 27.879C15.2582 24.6706 14.9582 21.454 14.6498 18.2123C13.1582 18.2123 11.6832 18.2123 10.1665 18.2123C11.5665 13.379 12.9582 8.59562 14.3415 3.81229C14.3665 3.81229 14.3832 3.81229 14.4082 3.81229C14.6248 4.53729 14.8415 5.27062 15.0498 5.99562C15.6332 7.97895 16.2165 9.96229 16.7832 11.954C16.8498 12.1956 16.9582 12.254 17.1915 12.2456C18.4832 12.2373 19.7748 12.2373 21.0665 12.2373C21.1832 12.2373 21.2915 12.2373 21.4582 12.2373C19.4998 17.479 17.5665 22.679 15.6248 27.8873C15.6082 27.8873 15.5832 27.8873 15.5582 27.879ZM18.7582 14.1206C17.8248 14.1206 16.9332 14.1206 16.0415 14.1206C15.4748 14.1206 15.4748 14.1206 15.3082 13.5623C15.0082 12.5456 14.7165 11.5373 14.4165 10.5206C14.3998 10.5206 14.3748 10.5206 14.3582 10.5123C13.7998 12.4373 13.2415 14.354 12.6748 16.3123C13.9165 16.3123 15.1332 16.3123 16.3582 16.3123C16.4665 17.404 16.5665 18.4706 16.6665 19.529C16.6915 19.529 16.7082 19.5373 16.7332 19.5373C17.4082 17.754 18.0748 15.954 18.7582 14.1206Z" fill="#073348"/>
<path d="M5.0166 26.5789C6.40827 26.3289 7.75827 26.0873 9.13327 25.8373C9.2416 26.4539 9.34994 27.0456 9.4666 27.6706C9.17493 27.7289 8.8916 27.7873 8.59993 27.8456C11.9333 30.1373 19.0499 31.4123 24.8249 26.5623C25.2249 27.0206 25.6166 27.4873 26.0333 27.9706C23.3916 30.1873 20.3916 31.4539 16.9749 31.7206C13.5666 31.9873 10.3916 31.1873 7.39994 29.3789C7.45827 29.7623 7.49993 30.0706 7.54993 30.4123C6.9416 30.5123 6.3416 30.6123 5.70827 30.7206C5.48327 29.3289 5.24993 27.9706 5.0166 26.5789Z" fill="#073348"/>
<path d="M23.0081 1.94561C22.9414 1.54561 22.8747 1.17061 22.7997 0.753946C23.4081 0.645612 24.0081 0.537279 24.6414 0.420612C24.8914 1.80395 25.1414 3.16228 25.3914 4.55395C24.1247 4.92895 22.8747 5.30395 21.5831 5.67895C21.3997 5.07061 21.2247 4.49561 21.0497 3.88728C21.3497 3.79561 21.6331 3.70395 21.9164 3.61228C21.9164 3.57895 21.9081 3.54561 21.9081 3.51228C17.1331 1.37061 12.4997 1.66228 7.99141 4.45395C7.64974 3.95395 7.30807 3.44561 6.94141 2.89561C12.1331 -0.312721 17.4581 -0.621055 23.0081 1.94561Z" fill="#073348"/>
</g>
<defs>
<clipPath id="clip0_322_1565">
<rect width="32" height="32" fill="white"/>
</clipPath>
</defs>
</svg>
