<svg width="32" height="32" viewBox="0 0 32 32" fill="none" xmlns="http://www.w3.org/2000/svg">
<path d="M2.07731 32C2.08567 30.9467 1.98536 29.8767 2.12747 28.8485C2.30301 27.5193 3.16404 26.6416 4.4514 26.2403C4.71054 26.1567 4.7607 26.0481 4.7607 25.8056C4.75234 23.1808 4.75234 20.5643 4.7607 17.9394C4.7607 17.7137 4.70218 17.5549 4.53499 17.3877C3.60709 16.4681 2.68755 15.5486 1.75965 14.6207C1.68442 14.5455 1.61754 14.4702 1.56738 14.4201C6.39079 9.59666 11.2058 4.78997 15.9958 0C20.7774 4.78161 25.5925 9.5883 30.4326 14.4284C30.3991 14.4619 30.3239 14.5455 30.2487 14.6207C29.3208 15.5486 28.3845 16.4765 27.465 17.4211C27.3479 17.5381 27.2644 17.7388 27.2644 17.906C27.256 20.5475 27.256 23.1891 27.2476 25.8307C27.2476 26.0815 27.3312 26.1651 27.5569 26.2236C28.9028 26.6082 29.8725 27.8036 29.931 29.2079C29.9728 30.1358 29.931 31.0637 29.9227 31.9916C20.6353 32 11.3563 32 2.07731 32ZM16.0042 8.39289C15.9206 8.46813 15.8537 8.52665 15.7868 8.59352C12.8025 11.5778 9.81817 14.5622 6.8422 17.5549C6.72517 17.6719 6.64993 17.8725 6.64993 18.0397C6.64157 20.6061 6.64157 23.1808 6.64157 25.7471C6.64157 25.8474 6.64157 25.9478 6.64157 26.0731C12.8944 26.0731 19.1139 26.0731 25.3668 26.0731C25.3668 25.9394 25.3668 25.8307 25.3668 25.7137C25.3668 23.1641 25.3668 20.6144 25.3751 18.0648C25.3751 17.8224 25.2999 17.6635 25.1327 17.4963C22.1651 14.5371 19.2058 11.5778 16.2466 8.61024C16.163 8.54336 16.0878 8.47649 16.0042 8.39289ZM15.9958 5.73459C19.4065 9.14525 22.8088 12.5475 26.1943 15.9331C26.7377 15.3981 27.2476 14.8798 27.7492 14.3783C23.837 10.4744 19.908 6.54545 16.0042 2.64159C12.1003 6.54545 8.17135 10.4744 4.25913 14.3783C4.75234 14.8715 5.27062 15.3898 5.80563 15.9248C9.18285 12.5475 12.5851 9.14525 15.9958 5.73459ZM3.92475 30.094C12 30.094 20.0251 30.094 28.0836 30.094C28.0669 29.7346 28.0836 29.4002 28.0167 29.0742C27.908 28.5225 27.373 27.9624 26.4368 27.9707C19.4817 27.9875 12.5266 27.9791 5.5632 27.9791C5.47961 27.9791 5.39601 27.9791 5.31242 27.9791C4.6771 28.0042 4.10866 28.4472 3.98327 29.0658C3.91639 29.4002 3.94147 29.7429 3.92475 30.094Z" fill="#073348"/>
<path d="M16.9653 14.3197C16.4805 15.465 16.004 16.5851 15.5108 17.7471C16.7898 17.7471 18.027 17.7471 19.3227 17.7471C18.4951 19.7617 17.6926 21.7262 16.8734 23.7241C16.2882 23.4817 15.7198 23.2476 15.1346 23.0136C15.5944 21.8934 16.0458 20.79 16.5056 19.6531C15.2182 19.6531 13.9643 19.6531 12.6519 19.6531C13.5212 17.605 14.3739 15.6071 15.2349 13.5757C15.8201 13.8265 16.3802 14.069 16.9653 14.3197Z" fill="#073348"/>
</svg>
