<svg width="32" height="32" viewBox="0 0 32 32" fill="none" xmlns="http://www.w3.org/2000/svg">
<path d="M12.1726 15.075C9.59763 14.65 7.42263 16.25 7.7143 18.325C8.32263 18.325 8.93096 18.325 9.53096 18.325C9.58096 17.2167 10.3143 16.8334 11.1393 16.9084C11.481 16.9334 11.8226 16.9167 12.1726 16.9167C12.1726 16.275 12.1726 15.6834 12.1726 15.075Z" fill="white"/>
<path d="M20.5728 15.0583C20.5728 15.6833 20.5728 16.275 20.5728 16.875C22.4478 17.225 24.6311 15.2833 24.3228 13.5333C23.7228 13.5333 23.1228 13.5333 22.5311 13.5333C22.3228 14.625 21.7478 15.075 20.5728 15.0583Z" fill="white"/>
<path d="M14.5894 16.8833C15.7977 16.8833 16.981 16.8833 18.181 16.8833C18.181 16.2667 18.181 15.6667 18.181 15.05C16.9727 15.05 15.7894 15.05 14.5894 15.05C14.5894 15.675 14.5894 16.2667 14.5894 16.8833Z" fill="white"/>
<path d="M9.53945 20.7416C8.91445 20.7416 8.30612 20.7416 7.68945 20.7416C7.68945 21.9416 7.68945 23.125 7.68945 24.325C8.31445 24.325 8.91445 24.325 9.53945 24.325C9.53945 23.1166 9.53945 21.9416 9.53945 20.7416Z" fill="white"/>
<path d="M22.5059 5.16665C23.1392 5.16665 23.7475 5.16665 24.3559 5.16665C24.3559 3.95831 24.3559 2.78331 24.3559 1.58331C23.7309 1.58331 23.1309 1.58331 22.5059 1.58331C22.5059 2.78331 22.5059 3.96665 22.5059 5.16665Z" fill="white"/>
<path d="M22.5142 7.43335C22.5142 8.65002 22.5142 9.83335 22.5142 11.0167C23.1392 11.0167 23.7475 11.0167 24.3475 11.0167C24.3475 9.80835 24.3475 8.62502 24.3475 7.43335C23.7308 7.43335 23.1308 7.43335 22.5142 7.43335Z" fill="white"/>
<path d="M9.54775 30.3417C9.54775 29.1417 9.54775 27.9667 9.54775 26.7667C8.91442 26.7667 8.30609 26.7667 7.69775 26.7667C7.69775 27.975 7.69775 29.1583 7.69775 30.3417" fill="white"/>
<path d="M1.57255 30.4416C1.57255 25.4416 1.56422 20.4416 1.57255 15.4416C1.58088 12.4 3.53088 9.8333 6.43922 9.0583C7.02255 8.89997 7.64755 8.8333 8.25589 8.8333C10.7142 8.8083 13.1726 8.82497 15.6309 8.82497C15.7559 8.82497 15.8809 8.82497 16.0642 8.82497C16.0642 5.87497 16.0642 2.94163 16.0642 0.00830078C16.6892 0.00830078 17.3142 0.00830078 17.9392 0.00830078C17.9392 3.04997 17.9309 6.09163 17.9309 9.1333C17.9309 9.64163 17.9309 10.15 17.9309 10.7C17.7892 10.7 17.6642 10.7 17.5476 10.7C14.4309 10.7 11.3226 10.7 8.20588 10.7C5.88088 10.7 3.99755 12.25 3.53922 14.525C3.47255 14.8666 3.44755 15.225 3.44755 15.5833C3.43922 20.925 3.44755 26.2666 3.44755 31.6083" fill="#073348"/>
<path d="M14.0645 32C14.0645 28.9583 14.0728 25.9167 14.0728 22.8833C14.0728 22.375 14.0728 21.8667 14.0728 21.3167C14.2145 21.3167 14.3395 21.3167 14.4561 21.3167C17.5561 21.3167 20.6645 21.3167 23.7645 21.3167C26.1145 21.3167 28.0145 19.7583 28.4645 17.4583C28.5311 17.1167 28.5478 16.7583 28.5478 16.4C28.5561 11.0667 28.5478 5.74167 28.5478 0.408333C28.5478 0.275 28.5561 0.141667 28.5561 0C29.1811 0 29.8061 0 30.4311 0C30.4311 0.533333 30.4228 1.05833 30.4228 1.59167C30.4228 6.55833 30.4228 11.525 30.4228 16.4917C30.4228 19.6917 28.3395 22.3167 25.2478 23.0167C24.7478 23.1333 24.2145 23.1667 23.6978 23.175C21.2395 23.1917 18.7811 23.1833 16.3228 23.1833C16.2061 23.1833 16.0978 23.1833 15.9228 23.1833C15.9228 26.1333 15.9228 29.0667 15.9228 32" fill="#073348"/>
<path d="M12.1726 15.075C12.1726 15.6833 12.1726 16.275 12.1726 16.9167C11.8226 16.9167 11.481 16.9417 11.1393 16.9083C10.3226 16.8417 9.58096 17.225 9.53096 18.325C8.92263 18.325 8.3143 18.325 7.7143 18.325C7.42263 16.2417 9.59763 14.65 12.1726 15.075Z" fill="#073348"/>
<path d="M20.5728 15.0583C21.7478 15.0833 22.3228 14.625 22.5311 13.5333C23.1311 13.5333 23.7311 13.5333 24.3228 13.5333C24.6311 15.2833 22.4478 17.225 20.5728 16.875C20.5728 16.275 20.5728 15.675 20.5728 15.0583Z" fill="#073348"/>
<path d="M14.5894 16.8833C14.5894 16.2667 14.5894 15.6667 14.5894 15.05C15.7894 15.05 16.981 15.05 18.181 15.05C18.181 15.6667 18.181 16.2583 18.181 16.8833C16.9894 16.8833 15.7977 16.8833 14.5894 16.8833Z" fill="#073348"/>
<path d="M9.53945 20.7416C9.53945 21.9416 9.53945 23.125 9.53945 24.325C8.92279 24.325 8.31445 24.325 7.68945 24.325C7.68945 23.125 7.68945 21.9416 7.68945 20.7416C8.31445 20.7416 8.92279 20.7416 9.53945 20.7416Z" fill="#073348"/>
<path d="M22.5059 5.16665C22.5059 3.96665 22.5059 2.78331 22.5059 1.58331C23.1225 1.58331 23.7309 1.58331 24.3559 1.58331C24.3559 2.77498 24.3559 3.95831 24.3559 5.16665C23.7475 5.16665 23.1475 5.16665 22.5059 5.16665Z" fill="#073348"/>
<path d="M22.5142 7.43335C23.1308 7.43335 23.7308 7.43335 24.3475 7.43335C24.3475 8.62502 24.3475 9.80835 24.3475 11.0167C23.7475 11.0167 23.1392 11.0167 22.5142 11.0167C22.5142 9.83335 22.5142 8.65835 22.5142 7.43335Z" fill="#073348"/>
<path d="M7.69775 30.3417C7.69775 29.15 7.69775 27.975 7.69775 26.7667C8.30609 26.7667 8.90609 26.7667 9.54775 26.7667C9.54775 27.9667 9.54775 29.1417 9.54775 30.3417" fill="#073348"/>
</svg>
