<svg width="32" height="32" viewBox="0 0 32 32" fill="none" xmlns="http://www.w3.org/2000/svg">
<path d="M30 15.9952C30 23.6983 23.6888 30.0095 15.9857 30C8.2826 29.9905 2 23.6983 2 16.0048C2 8.29217 8.3112 1.98098 16.0143 2.00004C23.7269 2.01911 30 8.3017 30 15.9952ZM17.8447 4.31669C16.4147 4.04022 14.3745 4.14508 13.0494 4.52643C12.8206 4.59316 12.792 4.7171 12.792 4.90777C12.7443 7.27208 13.2496 9.51246 14.3459 11.6194C14.4127 11.7433 14.5557 11.8958 14.6701 11.8958C14.9179 11.9054 15.0419 11.7433 15.0705 11.4668C15.3565 9.14065 16.1478 6.98607 17.3967 5.01263C17.5301 4.79336 17.6731 4.57409 17.8447 4.31669ZM17.492 20.0661C17.206 20.1233 16.9772 20.1519 16.9391 20.4951C16.634 23.031 15.7378 25.3572 14.2983 27.4641C14.2506 27.5308 14.222 27.6071 14.1743 27.6929C15.8141 27.9407 17.4062 27.8549 18.9792 27.4545C19.208 27.3973 19.208 27.2543 19.208 27.0827C19.2366 25.6527 19.065 24.2608 18.6646 22.888C18.3882 21.9156 18.0068 20.9717 17.492 20.0661ZM26.587 21.2864C27.2257 20.1519 27.731 18.2928 27.8168 16.8628C27.8359 16.5768 27.7596 16.4529 27.4831 16.3575C25.2714 15.6044 23.0119 15.3851 20.6953 15.776C20.5713 15.795 20.4474 15.8236 20.333 15.8427C20.2758 16.3385 20.2758 16.3385 20.6857 16.5387C21.9346 17.1393 23.1073 17.8638 24.1273 18.8076C24.9854 19.5894 25.7671 20.4569 26.587 21.2864ZM11.6479 16.2241C11.7814 15.795 11.6765 15.6139 11.3429 15.4518C9.36942 14.5271 7.67245 13.221 6.24242 11.5717C5.97549 11.2666 5.72761 10.952 5.46067 10.6279C4.72659 12.0865 4.30712 13.5928 4.20225 15.1944C4.18318 15.4423 4.25945 15.5472 4.48825 15.633C5.99455 16.1478 7.54852 16.4433 9.14062 16.4147C9.97957 16.3957 10.8281 16.2908 11.6479 16.2241ZM24.3085 7.57715C23.1645 6.44266 21.8298 5.57511 20.3235 4.9745C20.1233 4.8887 20.047 4.99357 19.9517 5.1175C18.493 7.00514 17.5969 9.12158 17.2346 11.4764C17.2155 11.6289 17.1011 11.8196 17.3585 11.934C17.5969 12.0388 17.7399 11.9721 17.9019 11.791C18.9506 10.6565 20.1519 9.69359 21.5056 8.94998C22.4113 8.4447 23.3551 8.03476 24.3085 7.57715ZM19.4178 13.3163C19.5322 13.7072 19.761 13.7644 20.1233 13.6977C21.6868 13.3926 23.2693 13.3354 24.8424 13.5642C25.7766 13.6977 26.7014 13.9074 27.6547 14.079C27.6452 14.0123 27.6547 13.9074 27.6357 13.8025C27.3497 12.3439 26.8158 10.9806 26.034 9.71266C25.9006 9.50292 25.7862 9.45525 25.5478 9.53152C24.3657 9.8938 23.2503 10.38 22.2111 11.0283C21.1719 11.667 20.2377 12.4202 19.4178 13.3163ZM4.35478 17.9306C4.35478 17.921 4.33572 17.9592 4.34525 17.9878C4.35478 18.0736 4.36432 18.1498 4.37385 18.2356C4.65986 19.6752 5.1842 21.0099 5.95642 22.2683C6.09942 22.4971 6.22336 22.5924 6.4903 22.478C7.42458 22.0681 8.397 21.7344 9.30269 21.2768C10.5611 20.6285 11.6384 19.7419 12.5918 18.7028C12.4774 18.3119 12.2581 18.2547 11.8863 18.3214C10.3228 18.6265 8.74021 18.6932 7.16718 18.4549C6.22336 18.3119 5.28907 18.1022 4.35478 17.9306ZM7.70106 24.4324C8.84508 25.5669 10.1893 26.444 11.7242 27.0255C11.81 27.0541 11.9911 26.9779 12.0483 26.8921C13.507 25.014 14.4127 22.888 14.7749 20.5427C14.794 20.3902 14.9179 20.1995 14.6605 20.0851C14.4222 19.9803 14.2792 20.0375 14.1076 20.2186C13.0875 21.315 11.9435 22.2588 10.6279 22.9833C9.68403 23.5077 8.69254 23.9462 7.70106 24.4324ZM6.7191 8.66397C8.1682 10.8471 10.0558 12.4869 12.3916 13.5833C12.7443 13.2115 12.7443 13.2115 12.5346 12.8206C11.5049 10.8948 10.8757 8.83558 10.7041 6.6524C10.6755 6.27106 10.6469 5.88972 10.6183 5.47024C9.06435 6.27106 7.77732 7.31975 6.7191 8.66397ZM21.4103 26.4917C22.4494 26.1484 24.7184 24.2799 25.2618 23.3075C23.8318 21.1529 21.9442 19.5131 19.618 18.4168C19.2843 18.6551 19.2843 18.8648 19.4654 19.189C20.333 20.7525 20.905 22.4304 21.1624 24.1941C21.2673 24.9568 21.334 25.729 21.4103 26.4917ZM15.9952 13.8502C14.8035 13.8502 13.8502 14.8226 13.8597 16.0143C13.8693 17.1869 14.8226 18.1403 16.0048 18.1403C17.1965 18.1403 18.1593 17.1869 18.1593 15.9857C18.1498 14.8036 17.1869 13.8502 15.9952 13.8502Z" fill="#073348"/>
</svg>
