<svg width="32" height="32" viewBox="0 0 32 32" fill="none" xmlns="http://www.w3.org/2000/svg">
<path d="M0 8.05419C1.29234 8.05419 2.58468 8.05419 3.91037 8.05419C3.91037 7.38718 3.91037 6.73684 3.91037 6.06982C6.10318 6.06982 8.2543 6.06982 10.4471 6.06982C10.4471 6.72016 10.4471 7.3705 10.4471 8.03752C14.1574 8.03752 17.8343 8.03752 21.5446 8.03752C21.5446 7.38718 21.5446 6.73684 21.5446 6.06982C23.7374 6.06982 25.8885 6.06982 28.0813 6.06982C28.0813 6.72016 28.0813 7.3705 28.0813 8.04585C29.407 8.04585 30.691 8.04585 32 8.04585C32 11.7895 32 15.5081 32 19.26C30.7077 19.26 29.4153 19.26 28.1146 19.26C28.1146 20.8775 28.1146 22.4534 28.1146 24.0459C29.407 24.0459 30.691 24.0459 31.9917 24.0459C31.9917 24.6712 31.9917 25.2798 31.9917 25.9302C21.3361 25.9302 10.6639 25.9302 0 25.9302C0 25.3048 0 24.6795 0 24.0542C1.30068 24.0542 2.59302 24.0542 3.89369 24.0542C3.89369 22.4367 3.89369 20.8525 3.89369 19.2517C3.72694 19.2517 3.59354 19.2517 3.46014 19.2517C2.30954 19.2434 1.1506 19.2434 0 19.235C0 15.5164 0 11.7811 0 8.05419ZM10.4721 17.3674C14.1824 17.3674 17.851 17.3674 21.5362 17.3674C21.5362 14.8827 21.5362 12.4231 21.5362 9.95518C17.8343 9.95518 14.1574 9.95518 10.4721 9.95518C10.4721 12.4315 10.4721 14.8911 10.4721 17.3674ZM21.5446 19.285C17.8343 19.285 14.1657 19.285 10.4805 19.285C10.4805 20.8859 10.4805 22.4617 10.4805 24.0375C14.1824 24.0375 17.8593 24.0375 21.5446 24.0375C21.5446 22.445 21.5446 20.8775 21.5446 19.285ZM5.8197 7.93746C5.8197 11.7645 5.8197 15.5581 5.8197 19.3601C6.74518 19.3601 7.65399 19.3601 8.55445 19.3601C8.55445 15.5331 8.55445 11.7394 8.55445 7.93746C7.63731 7.93746 6.74518 7.93746 5.8197 7.93746ZM26.1886 19.3684C26.1886 15.5414 26.1886 11.7394 26.1886 7.9458C25.2632 7.9458 24.3627 7.9458 23.4455 7.9458C23.4455 11.7645 23.4455 15.5581 23.4455 19.3684C24.371 19.3684 25.2715 19.3684 26.1886 19.3684ZM3.90203 17.3757C3.90203 14.8744 3.90203 12.4148 3.90203 9.95518C3.21834 9.95518 2.55133 9.95518 1.90099 9.95518C1.90099 12.4398 1.90099 14.9078 1.90099 17.3757C2.57634 17.3757 3.22668 17.3757 3.90203 17.3757ZM28.1146 9.93851C28.1146 12.4315 28.1146 14.8911 28.1146 17.359C28.7983 17.359 29.457 17.359 30.124 17.359C30.124 14.8744 30.124 12.4065 30.124 9.93851C29.4487 9.93851 28.7983 9.93851 28.1146 9.93851ZM5.81136 24.0375C6.75352 24.0375 7.66232 24.0375 8.55445 24.0375C8.55445 23.1037 8.55445 22.1949 8.55445 21.2861C7.62897 21.2861 6.7285 21.2861 5.81136 21.2861C5.81136 22.2116 5.81136 23.112 5.81136 24.0375ZM23.4622 21.2777C23.4622 22.2199 23.4622 23.1287 23.4622 24.0375C24.3877 24.0375 25.2882 24.0375 26.197 24.0375C26.197 23.112 26.197 22.2032 26.197 21.2777C25.2798 21.2777 24.3794 21.2777 23.4622 21.2777Z" fill="#073348"/>
</svg>
