<svg width="32" height="32" viewBox="0 0 32 32" fill="none" xmlns="http://www.w3.org/2000/svg">
<path d="M0.00833116 16.8916C0.00833116 16.3821 0.00833116 15.8726 0.00833116 15.3631C0.0916428 14.93 0.158292 14.4885 0.258266 14.0639C1.07472 10.4974 4.25723 7.72067 7.82296 7.53386C9.47253 7.44894 11.1304 7.49989 12.7883 7.48291C12.905 7.48291 13.0299 7.48291 13.1632 7.48291C13.1632 6.75263 13.1632 6.06481 13.1632 5.33454C12.6384 5.33454 12.1218 5.33454 11.6053 5.33454C11.6053 4.68068 11.6053 4.06929 11.6053 3.4494C14.5462 3.4494 17.4705 3.4494 20.403 3.4494C20.403 4.07778 20.403 4.68917 20.403 5.33454C19.8698 5.33454 19.3533 5.33454 18.8284 5.33454C18.8284 6.06481 18.8284 6.76112 18.8284 7.47442C18.9701 7.47442 19.095 7.47442 19.22 7.47442C20.6446 7.47442 22.0693 7.46593 23.4939 7.47442C27.3929 7.4914 30.692 10.0644 31.7084 13.8941C31.8417 14.3951 31.9 14.9046 32 15.4141C32 15.9066 32 16.3906 32 16.8831C31.9833 16.951 31.95 17.019 31.9417 17.0869C31.7334 18.9126 31.0253 20.509 29.8172 21.8762C28.6925 23.1584 27.3012 24.016 25.6766 24.4661C25.585 24.4916 25.4517 24.5935 25.4517 24.6529C25.435 25.3068 25.4434 25.9606 25.4434 26.6399C25.5933 26.6399 25.71 26.6399 25.8183 26.6399C26.9097 26.6399 28.001 26.6399 29.0924 26.6399C30.0588 26.6399 31.0253 26.6315 31.9917 26.623C31.9917 27.2598 31.9917 27.8967 31.9917 28.5336C31.875 28.5421 31.7667 28.5506 31.6501 28.5506C21.2111 28.5506 10.7805 28.5506 0.341578 28.5506C0.224941 28.5506 0.116636 28.5421 0 28.5336C0 27.8967 0 27.2598 0 26.623C0.0416558 26.6315 0.0833116 26.6399 0.124967 26.6399C2.19943 26.6399 4.26556 26.6399 6.34002 26.6399C6.40666 26.6399 6.47331 26.623 6.53996 26.6145C6.5483 26.572 6.56496 26.555 6.56496 26.5296C6.56496 25.9691 6.55663 25.4087 6.57329 24.8397C6.58162 24.602 6.5233 24.5086 6.27337 24.4321C3.10752 23.4556 1.08305 21.3497 0.241604 18.0889C0.14163 17.6983 0.0833116 17.2907 0.00833116 16.8916ZM12.5384 22.8272C12.6717 22.8272 12.7633 22.8272 12.855 22.8272C16.3874 22.8272 19.9115 22.8272 23.4439 22.8272C23.7855 22.8272 24.1354 22.8017 24.4686 22.7593C28.2426 22.2413 30.817 18.4286 29.9589 14.6498C29.2424 11.5249 26.6264 9.4105 23.4356 9.40201C21.3944 9.39352 19.3533 9.40201 17.3122 9.40201C17.1955 9.40201 17.0706 9.40201 16.9206 9.40201C16.9206 8.03486 16.9206 6.71017 16.9206 5.37699C16.2874 5.37699 15.6793 5.37699 15.0461 5.37699C15.0461 6.72716 15.0461 8.04335 15.0461 9.4105C14.188 9.4105 13.3632 9.4105 12.5384 9.4105C12.5384 13.9026 12.5384 18.3437 12.5384 22.8272ZM6.55663 22.513C6.55663 18.2333 6.55663 13.979 6.55663 9.72469C4.19891 10.0898 1.94116 13.0959 1.88284 15.9236C1.80786 19.5664 4.39052 21.9441 6.55663 22.513ZM12.5384 26.6315C16.2291 26.6315 19.8865 26.6315 23.5522 26.6315C23.5522 26.0031 23.5522 25.3917 23.5522 24.7718C19.8698 24.7718 16.2124 24.7718 12.5384 24.7718C12.5384 25.4002 12.5384 26.0031 12.5384 26.6315ZM8.46446 17.0444C8.46446 17.6983 8.46446 18.3267 8.46446 18.9466C9.19761 18.9466 9.91409 18.9466 10.6222 18.9466C10.6222 18.3012 10.6222 17.6813 10.6222 17.0444C9.89742 17.0444 9.19761 17.0444 8.46446 17.0444ZM8.45613 11.2617C9.18094 11.2617 9.89742 11.2617 10.6222 11.2617C10.6222 10.6418 10.6222 10.0304 10.6222 9.41899C9.88076 9.41899 9.17261 9.41899 8.45613 9.41899C8.45613 10.0389 8.45613 10.6418 8.45613 11.2617ZM10.6306 15.0999C10.6306 14.446 10.6306 13.8261 10.6306 13.1978C9.89742 13.1978 9.18927 13.1978 8.46446 13.1978C8.46446 13.8431 8.46446 14.4715 8.46446 15.0999C9.19761 15.0999 9.89742 15.0999 10.6306 15.0999ZM8.45613 22.8102C9.19761 22.8102 9.90575 22.8102 10.6306 22.8102C10.6306 22.1649 10.6306 21.5365 10.6306 20.8996C9.89742 20.8996 9.18927 20.8996 8.45613 20.8996C8.45613 21.545 8.45613 22.1649 8.45613 22.8102ZM10.6222 26.6399C10.6222 25.9946 10.6222 25.3832 10.6222 24.7633C9.88909 24.7633 9.17261 24.7633 8.46446 24.7633C8.46446 25.4002 8.46446 26.0201 8.46446 26.6399C9.19761 26.6399 9.89742 26.6399 10.6222 26.6399Z" fill="#073348"/>
</svg>
