<svg width="32" height="32" viewBox="0 0 32 32" fill="none" xmlns="http://www.w3.org/2000/svg">
<g clip-path="url(#clip0_322_1550)">
<path d="M0 26.3639C2.06981 26.3639 4.13961 26.3639 6.25628 26.3639C6.25628 25.7458 6.2641 25.1433 6.24847 24.5487C6.24847 24.4861 6.10007 24.3922 6.01416 24.3766C3.96778 24.001 2.39004 22.937 1.24188 21.2079C-0.726385 18.2426 -0.0312425 14.0098 2.78057 11.827C4.10056 10.802 5.59238 10.27 7.26385 10.27C13.0827 10.27 18.9094 10.2622 24.7283 10.27C27.8994 10.2778 30.5316 12.1947 31.547 15.1834C32.6405 18.4069 31.094 22.1859 28.0244 23.6724C27.3839 23.9776 26.6732 24.1341 25.9937 24.3609C25.9155 24.3844 25.8374 24.4079 25.7515 24.4314C25.7515 25.0651 25.7515 25.691 25.7515 26.3482C27.8213 26.3482 29.8833 26.3482 32 26.3482C32 28.2495 32 30.1272 32 31.9971C21.3385 31.9971 10.6693 31.9971 0.00781059 31.9971C0 30.1116 0 28.2338 0 26.3639ZM8.15426 22.5849C13.3874 22.5849 18.6048 22.5849 23.8379 22.5849C23.8379 19.1032 23.8379 15.6372 23.8379 12.1712C18.597 12.1712 13.3795 12.1712 8.15426 12.1712C8.15426 15.6529 8.15426 19.1111 8.15426 22.5849ZM1.89016 30.0959C11.3097 30.0959 20.7059 30.0959 30.0942 30.0959C30.0942 29.4622 30.0942 28.8597 30.0942 28.2573C20.6824 28.2573 11.2941 28.2573 1.89016 28.2573C1.89016 28.8676 1.89016 29.47 1.89016 30.0959ZM6.24066 12.2651C4.13961 12.5624 1.93703 14.6123 1.9917 17.468C2.04638 20.3238 4.32707 22.2328 6.24066 22.4754C6.24066 19.0798 6.24066 15.6842 6.24066 12.2651ZM25.7515 22.4754C27.7432 22.2094 30.0083 20.2455 30.0083 17.3663C30.0083 14.4636 27.712 12.5155 25.7515 12.2651C25.7515 15.6607 25.7515 19.0563 25.7515 22.4754ZM8.15426 26.3404C13.3874 26.3404 18.6048 26.3404 23.8379 26.3404C23.8379 25.7145 23.8379 25.1042 23.8379 24.5018C18.597 24.5018 13.3795 24.5018 8.15426 24.5018C8.15426 25.1277 8.15426 25.7301 8.15426 26.3404Z" fill="#073348"/>
<path d="M19.5579 4.87145C19.5032 6.7179 18.066 8.24358 16.2071 8.37658C14.4497 8.50959 12.8329 7.20299 12.5518 5.42695C12.3643 4.23771 12.7627 3.20494 13.4266 2.25824C14.067 1.35066 14.8871 0.638681 15.8322 0.0597081C15.9025 0.0127643 16.0431 -0.0185316 16.1056 0.0205882C17.4724 0.881224 18.6362 1.92964 19.2298 3.4866C19.386 3.92475 19.4485 4.40983 19.5579 4.87145ZM15.9962 2.24259C15.3948 2.75115 14.8793 3.29883 14.5747 4.01081C14.3013 4.64455 14.2779 5.26264 14.7075 5.84944C15.1761 6.48318 16.0197 6.67878 16.7148 6.33453C17.449 5.9668 17.7927 5.16093 17.5427 4.32377C17.2772 3.46313 16.6836 2.83722 15.9962 2.24259Z" fill="#073348"/>
</g>
<defs>
<clipPath id="clip0_322_1550">
<rect width="32" height="32" fill="white"/>
</clipPath>
</defs>
</svg>
