<svg width="14" height="25" viewBox="0 0 14 25" fill="none" xmlns="http://www.w3.org/2000/svg">
<path d="M4.16973 9.70049H4.66973V9.20049V6.47723C4.66973 4.78716 5.19304 3.44323 6.07583 2.52499C6.95665 1.60881 8.23878 1.07089 9.84755 1.0708C9.84768 1.0708 9.84781 1.0708 9.84795 1.0708L12.9001 1.07577V4.71835L10.8494 4.7191C10.8493 4.7191 10.8493 4.7191 10.8492 4.7191C10.0956 4.71912 9.48439 4.86319 9.09434 5.31105C8.71914 5.74185 8.66274 6.33256 8.66274 6.89195V9.20049V9.70049H9.16274H12.7563L12.7548 13.6252H9.16274H8.66274V14.1252V24.0708H4.66973V14.1252V13.6252H4.16973H1.1001V9.70049H4.16973Z" fill="#198ABF" stroke="#198ABF"/>
</svg>
