<svg width="14" height="13" viewBox="0 0 14 13" fill="none" xmlns="http://www.w3.org/2000/svg">
<path d="M3.20399 2.6344C3.65968 2.15821 3.76624 1.46895 3.47548 0.878285C3.34207 0.607254 3.05174 0.316411 2.78953 0.1911C2.45912 0.0332276 2.11657 -0.0090165 1.77096 0.0654659C1.3552 0.155069 0.926691 0.491126 0.73885 0.874917C0.449315 1.46648 0.557048 2.1612 1.01174 2.63482L3.20399 2.6344ZM3.20399 2.6344L3.01174 2.45043C2.51948 2.96484 1.69793 2.96535 1.20369 2.45054C0.82669 2.05785 0.737216 1.48354 0.977849 0.991892C1.13005 0.680923 1.49138 0.397922 1.82702 0.325584L1.82702 0.325583C2.11288 0.263979 2.39548 0.297732 2.67479 0.431183L2.78952 0.191119L2.67481 0.431192C2.88084 0.529664 3.12861 0.77612 3.23675 0.9958L3.23675 0.995802C3.47807 1.48603 3.39027 2.05487 3.01174 2.45043L3.20399 2.6344ZM7.98587 5.42664L7.86938 5.6013L7.39166 6.31758L7.38194 5.45666L7.37525 4.86404L7.37153 4.53451H6.36235H5.35615V8.53526V12.536H6.41271H7.46928L7.46934 10.5626C7.46941 9.17873 7.47915 8.20696 7.49725 8.01379C7.49725 8.01378 7.49725 8.01378 7.49725 8.01378L7.98587 5.42664ZM7.98587 5.42664C7.98587 5.42664 7.98587 5.42663 7.98588 5.42663C8.34757 4.88436 8.93948 4.50183 9.64616 4.36891C9.76036 4.34743 10.0248 4.33733 10.3197 4.3437C10.6122 4.35001 10.8901 4.37148 11.0271 4.39996C11.593 4.51761 11.9927 4.73074 12.2863 5.04452L12.4806 4.86273L12.2863 5.04453C12.7289 5.51757 12.9772 6.19627 13.0597 7.34413L13.0597 7.34416C13.0732 7.53199 13.0841 8.76227 13.0842 10.2383L13.0843 12.536H12.0277H10.9712V10.4842C10.9712 9.08759 10.9685 8.33387 10.9366 7.87215C10.9204 7.63864 10.8962 7.46821 10.8574 7.32056L7.98587 5.42664ZM1.03883 8.5519C1.03883 7.38332 1.04073 6.31924 1.04378 5.54628C1.0453 5.15973 1.04712 4.84634 1.04913 4.6292C1.04941 4.5982 1.0497 4.56921 1.04999 4.5423C1.0918 4.54177 1.13829 4.54131 1.18898 4.54091C1.42841 4.53904 1.75713 4.53875 2.11716 4.54052L3.16481 4.54568L3.17074 8.54189L3.17666 12.536H2.10794H1.03883V8.5519Z" fill="white" stroke="white" stroke-width="0.532179"/>
</svg>
