<svg width="24" height="25" viewBox="0 0 24 25" fill="none" xmlns="http://www.w3.org/2000/svg">
<path d="M0.312899 2.16413L0.751222 2.37866C0.299058 3.30251 0.467184 4.38167 1.17559 5.11957C2.1043 6.08692 3.64806 6.08596 4.57304 5.11935L4.93429 5.46504L4.57305 5.11935C5.28432 4.37607 5.44929 3.30719 4.99584 2.38601L4.99584 2.38601C4.79265 1.97321 4.32708 1.51011 3.93992 1.32507L0.312899 2.16413ZM0.312899 2.16413L0.751223 2.37866M0.312899 2.16413L0.751223 2.37866M23.5 24.0708H24L23.9998 19.7532C23.9997 16.9928 23.9795 14.6553 23.9524 14.2791C23.794 12.0721 23.3103 10.6619 22.3657 9.65223M23.5 24.0708L23.4998 19.7532C23.4997 16.9797 23.4791 14.6679 23.4537 14.315L23.4537 14.3149C23.2988 12.158 22.8322 10.8827 22.0006 9.99383L22.3657 9.65223M23.5 24.0708L23.5 24.5708M23.5 24.0708H21.5147H19.5293M22.3657 9.65223L22.0006 9.99382C21.4489 9.40421 20.6978 9.00372 19.6344 8.78265C19.3769 8.72913 18.8549 8.68879 18.3052 8.67692C17.7509 8.66496 17.2541 8.68393 17.0396 8.7243L16.9471 8.23292L17.0395 8.7243C15.7116 8.97408 14.5994 9.69286 13.9198 10.7118C13.9198 10.7118 13.9198 10.7118 13.9198 10.7118M22.3657 9.65223L13.9198 10.7118M13.9198 10.7118L13.7009 11.04L12.8032 12.386L12.7849 10.7682L12.7724 9.65469L12.7654 9.03548H10.869H8.97834V16.5531V24.0708H10.9637H12.949L12.9492 20.3627C12.9493 17.7623 12.9676 15.9363 13.0016 15.5733L13.9198 10.7118ZM23.5 24.5708L13.0016 15.5732C13.0862 14.6708 13.3006 13.9137 13.6931 13.3274C14.0947 12.7276 14.6597 12.3416 15.3685 12.1533C15.632 12.0833 15.9602 12.046 16.267 12.0358C16.5722 12.0256 16.8985 12.0407 17.1561 12.0957C17.5897 12.1882 17.9665 12.3364 18.2881 12.5827C18.6111 12.8302 18.8457 13.1518 19.0332 13.5404M23.5 24.5708H21.5147H19.5293V24.0708M23.5 24.5708L19.0293 24.0708H19.5293M19.5293 24.0708V20.2153C19.5293 17.591 19.5243 16.1747 19.4643 15.3071C19.434 14.8683 19.3885 14.5481 19.3156 14.2707C19.2416 13.9891 19.1443 13.7706 19.0332 13.5404M19.0332 13.5404L18.5829 13.7577L19.0332 13.5405C19.0332 13.5405 19.0332 13.5404 19.0332 13.5404ZM0.751223 2.37866C1.03721 1.79433 1.71618 1.26255 2.34687 1.12663L0.751223 2.37866ZM4.8718 16.5656L4.88293 24.0708H2.87474H0.865808V16.5844C0.865808 14.3886 0.869372 12.3891 0.875107 10.9367C0.877975 10.2103 0.881384 9.62143 0.885155 9.21341C0.885693 9.15515 0.886238 9.10068 0.886788 9.05012C0.965343 9.04912 1.05271 9.04825 1.14796 9.0475C1.59786 9.04398 2.21555 9.04345 2.89206 9.04677L4.86068 9.05647L4.8718 16.5656ZM2.34688 1.12662C2.88402 1.01087 3.41505 1.07429 3.93989 1.32505L2.34688 1.12662Z" fill="#198ABF" stroke="#198ABF"/>
</svg>
