<svg width="12" height="11" viewBox="0 0 12 11" fill="none" xmlns="http://www.w3.org/2000/svg">
<path d="M11.0896 0.503968L0.551425 4.57702C-0.159744 4.83563 -0.159744 5.28819 0.422121 5.41749L3.07284 6.25796L4.10727 9.36124C4.23657 9.6845 4.17192 9.8138 4.49518 9.8138C4.75378 9.8138 4.88309 9.6845 5.01239 9.5552C5.07704 9.49055 5.65891 8.90868 6.30542 8.26217L9.02079 10.2664C9.538 10.525 9.86126 10.3957 9.99057 9.8138L11.8008 1.34444C11.9948 0.633271 11.5422 0.245361 11.0896 0.503968ZM9.73196 2.44352L4.68913 7.03378L4.49518 9.16729L3.46075 6.06401L9.4087 2.31421C9.66731 2.12026 9.92591 2.24956 9.73196 2.44352Z" fill="white"/>
</svg>
