<svg width="23" height="19" viewBox="0 0 23 19" fill="none" xmlns="http://www.w3.org/2000/svg">
<path d="M20.9165 0.340988L1.11449 7.99452C-0.22184 8.48046 -0.22184 9.33086 0.871522 9.57383L5.8524 11.1531L7.79615 16.9844C8.03912 17.5918 7.91764 17.8348 8.52506 17.8348C9.011 17.8348 9.25397 17.5918 9.49694 17.3488C9.61842 17.2274 10.7118 16.134 11.9266 14.9192L17.029 18.6852C18.0009 19.1711 18.6083 18.9282 18.8513 17.8348L22.2528 1.92029C22.6173 0.583957 21.7669 -0.144951 20.9165 0.340988ZM18.3653 3.98553L8.88951 12.6109L8.52506 16.6199L6.5813 10.7887L17.7579 3.74256C18.2438 3.37811 18.7298 3.62108 18.3653 3.98553Z" fill="#198ABF"/>
</svg>
