<svg width="24" height="24" viewBox="0 0 24 24" fill="none" xmlns="http://www.w3.org/2000/svg">
<g clip-path="url(#clip0_434_2450)">
<path d="M18.3633 15.536L16.9493 14.12L18.3633 12.706C18.8309 12.2425 19.2024 11.6911 19.4564 11.0836C19.7103 10.4761 19.8418 9.82442 19.8433 9.16597C19.8447 8.50752 19.7161 7.85527 19.4648 7.24666C19.2134 6.63806 18.8444 6.08508 18.3788 5.61949C17.9132 5.15389 17.3602 4.78484 16.7516 4.53353C16.143 4.28222 15.4908 4.15359 14.8323 4.15503C14.1739 4.15647 13.5222 4.28796 12.9147 4.54193C12.3072 4.79591 11.7558 5.16737 11.2923 5.635L9.87828 7.05L8.46328 5.636L9.87928 4.222C11.1921 2.90918 12.9727 2.17165 14.8293 2.17165C16.6859 2.17165 18.4665 2.90918 19.7793 4.222C21.0921 5.53483 21.8296 7.31539 21.8296 9.172C21.8296 11.0286 21.0921 12.8092 19.7793 14.122L18.3643 15.536H18.3633ZM15.5353 18.364L14.1203 19.778C12.8075 21.0908 11.0269 21.8284 9.17028 21.8284C7.31367 21.8284 5.5331 21.0908 4.22028 19.778C2.90746 18.4652 2.16992 16.6846 2.16992 14.828C2.16992 12.9714 2.90746 11.1908 4.22028 9.878L5.63528 8.464L7.04928 9.88L5.63528 11.294C5.16765 11.7576 4.79618 12.3089 4.54221 12.9164C4.28823 13.5239 4.15675 14.1756 4.15531 14.834C4.15387 15.4925 4.28249 16.1447 4.53381 16.7533C4.78512 17.362 5.15417 17.9149 5.61976 18.3805C6.08536 18.8461 6.63833 19.2152 7.24694 19.4665C7.85554 19.7178 8.50779 19.8464 9.16624 19.845C9.82469 19.8435 10.4764 19.7121 11.0839 19.4581C11.6914 19.2041 12.2427 18.8326 12.7063 18.365L14.1203 16.951L15.5353 18.365V18.364ZM14.8273 7.757L16.2423 9.172L9.17128 16.242L7.75628 14.828L14.8273 7.758V7.757Z" fill="#073348"/>
</g>
<defs>
<clipPath id="clip0_434_2450">
<rect width="24" height="24" fill="white"/>
</clipPath>
</defs>
</svg>
