<svg width="17" height="16" viewBox="0 0 17 16" fill="none" xmlns="http://www.w3.org/2000/svg">
<path d="M3.25115 13.3332C2.88448 13.3332 2.57059 13.2026 2.30948 12.9415C2.04837 12.6804 1.91782 12.3665 1.91782 11.9998V3.99984C1.91782 3.63317 2.04837 3.31928 2.30948 3.05817C2.57059 2.79706 2.88448 2.6665 3.25115 2.6665H13.9178C14.2845 2.6665 14.5984 2.79706 14.8595 3.05817C15.1206 3.31928 15.2511 3.63317 15.2511 3.99984V11.9998C15.2511 12.3665 15.1206 12.6804 14.8595 12.9415C14.5984 13.2026 14.2845 13.3332 13.9178 13.3332H3.25115ZM8.58448 8.6665L3.25115 5.33317V11.9998H13.9178V5.33317L8.58448 8.6665ZM8.58448 7.33317L13.9178 3.99984H3.25115L8.58448 7.33317ZM3.25115 5.33317V3.99984V11.9998V5.33317Z" fill="white"/>
</svg>
