<svg width="13" height="15" viewBox="0 0 13 15" fill="none" xmlns="http://www.w3.org/2000/svg">
<path d="M6.58447 7.5C6.99697 7.5 7.3501 7.35313 7.64385 7.05938C7.9376 6.76563 8.08447 6.4125 8.08447 6C8.08447 5.5875 7.9376 5.23438 7.64385 4.94063C7.3501 4.64688 6.99697 4.5 6.58447 4.5C6.17197 4.5 5.81885 4.64688 5.5251 4.94063C5.23135 5.23438 5.08447 5.5875 5.08447 6C5.08447 6.4125 5.23135 6.76563 5.5251 7.05938C5.81885 7.35313 6.17197 7.5 6.58447 7.5ZM6.58447 13.0125C8.10947 11.6125 9.24072 10.3406 9.97822 9.19688C10.7157 8.05313 11.0845 7.0375 11.0845 6.15C11.0845 4.7875 10.6501 3.67188 9.78135 2.80313C8.9126 1.93438 7.84697 1.5 6.58447 1.5C5.32197 1.5 4.25635 1.93438 3.3876 2.80313C2.51885 3.67188 2.08447 4.7875 2.08447 6.15C2.08447 7.0375 2.45322 8.05313 3.19072 9.19688C3.92822 10.3406 5.05947 11.6125 6.58447 13.0125ZM6.58447 15C4.57197 13.2875 3.06885 11.6969 2.0751 10.2281C1.08135 8.75938 0.584473 7.4 0.584473 6.15C0.584473 4.275 1.1876 2.78125 2.39385 1.66875C3.6001 0.55625 4.99697 0 6.58447 0C8.17197 0 9.56885 0.55625 10.7751 1.66875C11.9813 2.78125 12.5845 4.275 12.5845 6.15C12.5845 7.4 12.0876 8.75938 11.0938 10.2281C10.1001 11.6969 8.59697 13.2875 6.58447 15Z" fill="white"/>
</svg>
