<svg width="17" height="17" viewBox="0 0 17 17" fill="none" xmlns="http://www.w3.org/2000/svg">
<path d="M13.8845 14.5C12.4956 14.5 11.1234 14.1972 9.76781 13.5917C8.41225 12.9861 7.17892 12.1278 6.06781 11.0167C4.9567 9.90556 4.09836 8.67222 3.49281 7.31667C2.88725 5.96111 2.58447 4.58889 2.58447 3.2C2.58447 3 2.65114 2.83333 2.78447 2.7C2.91781 2.56667 3.08447 2.5 3.28447 2.5H5.98447C6.14003 2.5 6.27892 2.55278 6.40114 2.65833C6.52336 2.76389 6.59558 2.88889 6.61781 3.03333L7.05114 5.36667C7.07336 5.54444 7.06781 5.69444 7.03447 5.81667C7.00114 5.93889 6.94003 6.04444 6.85114 6.13333L5.23447 7.76667C5.4567 8.17778 5.72058 8.575 6.02614 8.95833C6.3317 9.34167 6.66781 9.71111 7.03447 10.0667C7.37892 10.4111 7.74003 10.7306 8.11781 11.025C8.49558 11.3194 8.89558 11.5889 9.31781 11.8333L10.8845 10.2667C10.9845 10.1667 11.115 10.0917 11.2761 10.0417C11.4373 9.99167 11.5956 9.97778 11.7511 10L14.0511 10.4667C14.2067 10.5111 14.3345 10.5917 14.4345 10.7083C14.5345 10.825 14.5845 10.9556 14.5845 11.1V13.8C14.5845 14 14.5178 14.1667 14.3845 14.3C14.2511 14.4333 14.0845 14.5 13.8845 14.5ZM4.60114 6.5L5.70114 5.4L5.41781 3.83333H3.93447C3.99003 4.28889 4.06781 4.73889 4.16781 5.18333C4.26781 5.62778 4.41225 6.06667 4.60114 6.5ZM10.5678 12.4667C11.0011 12.6556 11.4428 12.8056 11.8928 12.9167C12.3428 13.0278 12.7956 13.1 13.2511 13.1333V11.6667L11.6845 11.35L10.5678 12.4667Z" fill="white"/>
</svg>
