<svg width="17" height="16" viewBox="0 0 17 16" fill="none" xmlns="http://www.w3.org/2000/svg">
<path d="M10.7845 11.1333L11.7178 10.1999L9.25115 7.73325V4.66658H7.91782V8.26658L10.7845 11.1333ZM8.58448 14.6666C7.66226 14.6666 6.79559 14.4916 5.98448 14.1416C5.17337 13.7916 4.46782 13.3166 3.86782 12.7166C3.26782 12.1166 2.79282 11.411 2.44282 10.5999C2.09282 9.78881 1.91782 8.92214 1.91782 7.99992C1.91782 7.0777 2.09282 6.21103 2.44282 5.39992C2.79282 4.58881 3.26782 3.88325 3.86782 3.28325C4.46782 2.68325 5.17337 2.20825 5.98448 1.85825C6.79559 1.50825 7.66226 1.33325 8.58448 1.33325C9.5067 1.33325 10.3734 1.50825 11.1845 1.85825C11.9956 2.20825 12.7011 2.68325 13.3011 3.28325C13.9011 3.88325 14.3761 4.58881 14.7261 5.39992C15.0761 6.21103 15.2511 7.0777 15.2511 7.99992C15.2511 8.92214 15.0761 9.78881 14.7261 10.5999C14.3761 11.411 13.9011 12.1166 13.3011 12.7166C12.7011 13.3166 11.9956 13.7916 11.1845 14.1416C10.3734 14.4916 9.5067 14.6666 8.58448 14.6666ZM8.58448 13.3333C10.0623 13.3333 11.3206 12.8138 12.3595 11.7749C13.3984 10.736 13.9178 9.4777 13.9178 7.99992C13.9178 6.52214 13.3984 5.26381 12.3595 4.22492C11.3206 3.18603 10.0623 2.66659 8.58448 2.66659C7.1067 2.66659 5.84837 3.18603 4.80948 4.22492C3.77059 5.26381 3.25115 6.52214 3.25115 7.99992C3.25115 9.4777 3.77059 10.736 4.80948 11.7749C5.84837 12.8138 7.1067 13.3333 8.58448 13.3333Z" fill="white"/>
</svg>
