<svg width="26" height="27" viewBox="0 0 26 27" fill="none" xmlns="http://www.w3.org/2000/svg">
<path d="M26 13.9668C25.8442 14.1293 25.6817 14.2851 25.5259 14.4476C23.2639 16.8451 20.6632 18.7415 17.5681 19.9267C14.3579 21.1525 11.1612 21.0712 7.99844 19.7641C4.89659 18.4773 2.28237 16.5065 0.0609534 14.0006C0.0474082 13.9803 0.033863 13.96 0 13.9058C0.406356 13.4656 0.799166 12.9983 1.23939 12.5784C3.22376 10.7024 5.40453 9.12437 7.95103 8.08816C9.82704 7.32286 11.764 6.92327 13.7958 7.05873C15.7057 7.19418 17.5004 7.74953 19.1935 8.60965C21.6655 9.85581 23.8395 11.5083 25.6885 13.574C25.7833 13.6756 25.8916 13.7704 25.9932 13.8652C26 13.8991 26 13.9329 26 13.9668ZM13.0034 8.56224C10.0438 8.56224 7.63949 10.9665 7.64626 13.9194C7.65303 16.8722 10.037 19.2562 12.9898 19.2697C15.9427 19.2833 18.3537 16.8858 18.3605 13.9194C18.3605 10.9733 15.963 8.56224 13.0034 8.56224ZM23.9276 13.9058C22.3834 12.3888 20.6971 11.102 18.7669 10.1267C19.4915 11.2916 19.8776 12.5513 19.8776 13.9194C19.8776 15.2874 19.4915 16.5471 18.7465 17.712C19.7286 17.414 22.8575 15.1181 23.9276 13.9058ZM7.25345 10.1064C5.71607 10.8175 2.72258 13.0457 2.09273 13.9329C3.06799 15.0707 6.51524 17.5901 7.23313 17.6917C5.85152 15.5719 5.64157 12.6055 7.25345 10.1064Z" fill="white"/>
<path d="M13.0034 16.9738C11.3171 16.9738 9.949 15.6125 9.949 13.9329C9.94223 12.233 11.3171 10.8649 13.0102 10.8717C14.6966 10.8785 16.0579 12.2398 16.0511 13.9261C16.0511 15.6057 14.683 16.9738 13.0034 16.9738ZM14.5273 13.9126C14.5273 13.066 13.8432 12.3888 12.9967 12.3888C12.1501 12.3888 11.4728 13.0728 11.4728 13.9194C11.4728 14.7659 12.1569 15.4432 13.0034 15.4432C13.85 15.4432 14.5273 14.7659 14.5273 13.9126Z" fill="white"/>
</svg>
