<svg width="26" height="26" viewBox="0 0 26 26" fill="none" xmlns="http://www.w3.org/2000/svg">
<g clip-path="url(#clip0_514_1298)">
<path d="M25.9615 14.5327C25.8801 14.8942 25.8141 15.2609 25.7175 15.6173C25.2702 17.2977 24.3146 18.6369 22.9676 19.7113C22.5 20.0881 22.0375 20.47 21.5647 20.8367C21.4275 20.9436 21.3665 21.0607 21.3716 21.244C21.3767 22.736 21.3767 24.228 21.3767 25.7148C21.3767 25.8065 21.3767 25.8982 21.3767 26C15.7956 26 10.2451 26 4.65895 26C4.65895 25.9083 4.65895 25.8218 4.65895 25.7301C4.65895 24.2382 4.65387 22.7462 4.66403 21.2593C4.66403 21.076 4.61829 20.9538 4.4658 20.8316C3.8406 20.3478 3.22557 19.859 2.63086 19.3447C1.21273 18.1073 0.37913 16.539 0.0995693 14.6753C0.053823 14.3596 0.0385742 14.0337 0.0385742 13.7129C0.0385742 11.2687 0.0385742 8.82961 0.0385742 6.39052C0.0385742 6.32432 0.0487401 6.25813 0.0487401 6.18684C1.44146 6.06463 2.67153 6.38034 3.65253 7.43439C4.63862 8.48845 4.72503 9.79201 4.63354 11.1669C4.90293 10.897 5.13674 10.6678 5.38072 10.4285C7.15466 12.2056 8.90827 13.9624 10.7127 15.7701C10.7127 13.5398 10.7127 11.396 10.7127 9.21661C9.50806 9.21661 8.30849 9.21661 7.04792 9.21661C9.04551 6.12573 11.0126 3.08069 13.0051 0C14.9976 3.08578 16.9647 6.12573 18.9623 9.21661C17.7119 9.21661 16.5123 9.21661 15.3077 9.21661C15.3077 11.3909 15.3077 13.5347 15.3077 15.6937C17.0714 13.9268 18.82 12.1751 20.5888 10.4031C20.8379 10.6729 21.0615 10.9123 21.2801 11.1516C21.3055 11.1414 21.3258 11.1312 21.3513 11.121C21.3563 11.0294 21.3614 10.9326 21.3665 10.841C21.4021 10.2656 21.3563 9.67489 21.4834 9.12495C21.9002 7.32746 23.4149 6.19193 25.3261 6.17156C25.5345 6.17156 25.748 6.15629 25.9564 6.1512C25.9615 8.94164 25.9615 11.7372 25.9615 14.5327ZM10.7229 24.4877C10.728 24.4164 10.733 24.3655 10.733 24.3196C10.733 22.7105 10.7432 21.1014 10.728 19.4924C10.7229 18.4179 10.3213 17.5014 9.56397 16.7376C8.26782 15.4391 6.97168 14.1406 5.67553 12.8421C5.62471 12.7912 5.56879 12.7454 5.49255 12.6843C5.14691 13.5703 5.20791 14.385 5.80769 15.0928C6.23974 15.602 6.73278 16.0552 7.20549 16.5288C7.37831 16.7019 7.56638 16.8547 7.7392 17.0074C7.34273 17.4046 6.99709 17.7458 6.63621 18.1073C6.58538 18.0615 6.52438 18.0055 6.46847 17.9495C5.41122 16.8903 4.35397 15.8261 3.29164 14.772C3.17474 14.6549 3.12899 14.5378 3.12899 14.3749C3.13407 12.9593 3.13916 11.5488 3.12899 10.1332C3.12899 9.87348 3.10358 9.6036 3.02733 9.35919C2.80368 8.62084 2.31064 8.12691 1.5787 7.84685C1.57362 7.90286 1.56345 7.92323 1.56345 7.94869C1.56345 9.90403 1.53804 11.8594 1.56853 13.8147C1.59395 15.5257 2.26998 16.9769 3.54071 18.1175C4.31839 18.8202 5.15199 19.4567 5.97034 20.1136C6.11267 20.2307 6.17874 20.3427 6.17874 20.5362C6.16858 21.7634 6.17366 22.9906 6.17366 24.2178C6.17366 24.3043 6.17366 24.396 6.17366 24.4928C7.70362 24.4877 9.198 24.4877 10.7229 24.4877ZM15.3128 24.4826C16.8325 24.4826 18.3269 24.4826 19.8569 24.4826C19.8569 24.3756 19.8569 24.2738 19.8569 24.177C19.8569 22.9499 19.862 21.7227 19.8518 20.4904C19.8518 20.3326 19.9026 20.2307 20.0246 20.1289C20.8786 19.4363 21.763 18.7744 22.5661 18.0309C23.7148 16.9667 24.3909 15.6275 24.4315 14.049C24.4823 12.0274 24.4518 10.0008 24.4569 7.97415C24.4569 7.9385 24.4417 7.89777 24.4315 7.84685C24.3756 7.86721 24.3349 7.8774 24.2943 7.89268C23.3641 8.34078 22.8914 9.07403 22.8863 10.1128C22.8812 11.5284 22.8812 12.944 22.8914 14.3545C22.8914 14.5276 22.8406 14.6549 22.7135 14.7771C21.6512 15.8312 20.5939 16.8954 19.5367 17.9546C19.4858 18.0055 19.4248 18.0564 19.3893 18.087C19.0284 17.7254 18.6827 17.3741 18.3117 17.0023C18.4489 16.875 18.6065 16.7325 18.7539 16.5848C19.252 16.0807 19.7705 15.5868 20.2381 15.0572C20.7972 14.4156 20.8938 13.3514 20.4973 12.7047C20.4719 12.725 20.4414 12.7454 20.4211 12.7658C19.0741 14.1152 17.7271 15.4544 16.3903 16.8139C15.6736 17.537 15.3026 18.4179 15.2975 19.4414C15.2924 21.076 15.2924 22.7105 15.2924 24.3451C15.2975 24.3807 15.3026 24.4215 15.3128 24.4826ZM13.7828 24.4877C13.7828 18.8813 13.7828 13.2953 13.7828 7.68899C14.5757 7.68899 15.3433 7.68899 16.1718 7.68899C15.1044 6.03917 14.0674 4.43008 13.0102 2.80063C11.9529 4.44027 10.916 6.03917 9.84861 7.69409C10.6822 7.69409 11.4599 7.69409 12.2681 7.69409C12.2681 13.3157 12.2681 18.8966 12.2681 24.4877C12.7764 24.4877 13.2542 24.4877 13.7828 24.4877Z" fill="white"/>
</g>
<defs>
<clipPath id="clip0_514_1298">
<rect width="26" height="26" fill="white"/>
</clipPath>
</defs>
</svg>
