<svg width="42" height="48" viewBox="0 0 42 48" fill="none" xmlns="http://www.w3.org/2000/svg">
<g clip-path="url(#clip0_324_2252)">
<path d="M6.32418 0.0759277C14.8184 0.0759277 23.3127 0.0759277 31.8069 0.0759277C31.7945 0.163196 31.7697 0.262932 31.7697 0.3502C31.7697 2.34491 31.7697 4.33962 31.7697 6.33433C31.7697 6.43407 31.7945 6.54627 31.8069 6.70834C35.217 6.70834 38.6147 6.70834 42 6.70834C42 20.4843 42 34.2104 42 47.924C31.4225 47.924 20.8698 47.924 10.2675 47.924C10.2675 45.7299 10.2675 43.5481 10.2675 41.3166C6.8202 41.3166 3.4225 41.3166 0 41.3166C0 41.142 0 41.0423 0 40.9301C0 29.5727 0 18.2153 0.0124004 6.85794C0.0124004 6.646 0.148804 6.3842 0.297608 6.22213C2.19486 4.28975 4.10452 2.38231 6.00177 0.462403C6.12577 0.3502 6.22498 0.200597 6.32418 0.0759277ZM28.9424 2.90592C22.6554 2.90592 16.4057 2.90592 10.1063 2.90592C10.1063 5.36191 10.1063 7.78049 10.1063 10.2489C7.65102 10.2489 5.24535 10.2489 2.82728 10.2489C2.82728 19.6989 2.82728 29.099 2.82728 38.4866C11.5447 38.4866 20.2374 38.4866 28.9424 38.4866C28.9424 26.6305 28.9424 14.7869 28.9424 2.90592ZM39.2223 9.5508C36.7174 9.5508 34.2498 9.5508 31.7449 9.5508C31.7449 20.1477 31.7449 30.7197 31.7449 41.3415C25.5075 41.3415 19.3074 41.3415 13.0948 41.3415C13.0948 42.6381 13.0948 43.8847 13.0948 45.119C21.8246 45.119 30.5049 45.119 39.2223 45.119C39.2223 33.2504 39.2223 21.4193 39.2223 9.5508ZM3.18689 7.41895C4.53853 7.41895 5.91497 7.41895 7.29141 7.41895C7.29141 6.01019 7.29141 4.62636 7.29141 3.26746C5.91497 4.65129 4.55093 6.03512 3.18689 7.41895Z" fill="#198ABF"/>
<path d="M3.18652 7.41907C4.55056 6.03524 5.927 4.65141 7.29104 3.26758C7.29104 4.62647 7.29104 6.0103 7.29104 7.41907C5.9146 7.41907 4.53816 7.41907 3.18652 7.41907Z" fill="white"/>
<path d="M24.9251 13.0913C24.9251 14.0014 24.9251 14.899 24.9251 15.834C18.8862 15.834 12.872 15.834 6.83301 15.834C6.83301 14.9239 6.83301 14.0263 6.83301 13.0913C12.8472 13.0913 18.8614 13.0913 24.9251 13.0913Z" fill="#1AAD21"/>
<path d="M24.9251 18.7014C24.9251 19.6115 24.9251 20.5091 24.9251 21.4317C18.8862 21.4317 12.872 21.4317 6.83301 21.4317C6.83301 20.5216 6.83301 19.6364 6.83301 18.7014C12.8348 18.7014 18.8489 18.7014 24.9251 18.7014Z" fill="#1AAD21"/>
<path d="M24.9251 24.2991C24.9251 25.2466 24.9251 26.1317 24.9251 27.0418C18.8986 27.0418 12.8844 27.0418 6.83301 27.0418C6.83301 26.1317 6.83301 25.2216 6.83301 24.2991C12.8596 24.2991 18.8738 24.2991 24.9251 24.2991Z" fill="#1AAD21"/>
</g>
<defs>
<clipPath id="clip0_324_2252">
<rect width="42" height="47.8481" fill="white" transform="translate(0 0.0759277)"/>
</clipPath>
</defs>
</svg>
