<svg width="109" height="109" viewBox="0 0 109 109" fill="none" xmlns="http://www.w3.org/2000/svg">
<rect x="0.5" y="0.5" width="108" height="108" rx="11.5" stroke="black" stroke-opacity="0.12"/>
<path d="M48.5011 81C48.5011 78.6845 48.5011 76.3534 48.5011 73.9753C47.5306 73.9753 46.6062 73.9753 45.6049 73.9753C45.6049 73.7406 45.6049 73.5529 45.6049 73.3651C45.6049 72.004 45.6049 70.6272 45.6049 69.2661C45.6049 66.9819 44.7268 65.1201 42.9397 63.7434C39.5351 61.0993 37.1164 57.7512 35.8532 53.5896C33.4807 45.7357 36.1613 37.1935 42.5854 32.187C53.4309 23.7073 69.0058 28.6825 73.1191 41.934C75.5224 49.694 72.9034 58.3927 66.541 63.3366C64.3688 65.0419 63.2442 67.1227 63.3828 69.9232C63.429 71.0497 63.3982 72.1918 63.3982 73.3182C63.3982 73.506 63.3982 73.7093 63.3982 73.944C62.4431 73.944 61.5188 73.944 60.502 73.944C60.502 76.3377 60.502 78.6689 60.502 81C56.512 81 52.5065 81 48.5011 81ZM54.6017 46.252C54.6787 46.1582 54.802 46.0017 54.9252 45.8609C56.3117 44.2182 58.0217 43.0135 60.1477 42.7788C62.2582 42.5441 64.3996 42.638 66.541 42.5754C66.5718 42.5754 66.6026 42.6223 66.6642 42.6693C66.6642 44.3277 66.695 46.0017 66.6642 47.6757C66.5718 52.3537 62.9361 56.2337 58.3298 56.6091C57.652 56.6717 56.9587 56.6717 56.2809 56.703C56.2809 58.8308 56.2809 60.8959 56.2809 62.9454C56.3425 62.9767 56.3733 63.008 56.4041 63.008C58.1604 63.008 59.9012 63.0237 61.6574 63.008C61.8115 63.008 62.0117 62.8829 62.135 62.7577C62.8745 62.0693 63.5523 61.3184 64.3226 60.6769C69.0983 56.6717 71.1934 51.5558 70.3461 45.3133C69.1599 36.552 60.8409 30.2626 52.2292 31.702C45.6357 32.7972 41.1219 36.7085 39.1962 43.1699C37.2397 49.7253 39.0575 55.4201 44.0027 60.0667C44.9887 60.9898 45.9746 61.9285 46.976 62.8359C47.0992 62.9454 47.3149 62.9924 47.4998 62.9924C48.5319 63.008 49.5795 62.9924 50.6117 62.9924C51.3203 62.9924 52.029 62.9924 52.7376 62.9924C52.7376 60.8333 52.7376 58.7525 52.7376 56.6404C52.3217 56.6404 51.9365 56.6404 51.5514 56.6404C46.2673 56.5466 42.3851 52.5414 42.3543 47.1751C42.3543 45.8296 42.3543 44.4841 42.3543 43.123C42.3543 42.9353 42.3697 42.7475 42.3851 42.5754C44.2954 42.5754 46.1749 42.5128 48.0235 42.5911C49.8414 42.6693 51.459 43.4202 52.8609 44.5936C53.4463 45.1256 53.9855 45.6888 54.6017 46.252ZM60.1477 66.5908C56.3887 66.5908 52.5836 66.5908 48.8554 66.5908C48.9479 67.8893 49.0403 69.1409 49.1327 70.4082C52.7222 70.4082 56.3117 70.4082 59.855 70.4082C59.9628 69.1253 60.0552 67.8737 60.1477 66.5908ZM45.8822 46.1112C45.2505 50.664 48.6706 53.6991 52.7222 53.089C53.323 48.7866 50.2419 45.6262 45.8822 46.1112ZM56.2963 53.089C60.4712 53.6991 63.768 50.5388 63.1363 46.1425C59.1309 45.5011 55.6801 48.5519 56.2963 53.089ZM57.0358 74.0066C55.3103 74.0066 53.6465 74.0066 51.9828 74.0066C51.9828 75.18 51.9828 76.3221 51.9828 77.4485C53.6928 77.4485 55.3566 77.4485 57.0358 77.4485C57.0358 76.2908 57.0358 75.1643 57.0358 74.0066Z" fill="#198ABF"/>
<mask id="mask0_301_156" style="mask-type:alpha" maskUnits="userSpaceOnUse" x="35" y="28" width="39" height="53">
<path d="M48.5704 80.8018C48.5704 78.5013 48.5704 76.1852 48.5704 73.8224C47.6025 73.8224 46.6806 73.8224 45.682 73.8224C45.682 73.5893 45.682 73.4027 45.682 73.2162C45.682 71.8639 45.682 70.496 45.682 69.1436C45.682 66.8741 44.8063 65.0244 43.0241 63.6565C39.6287 61.0295 37.2166 57.703 35.9568 53.5682C33.5908 45.7649 36.2641 37.2777 42.6707 32.3036C53.4867 23.8785 69.0194 28.8216 73.1214 41.9877C75.5182 49.6977 72.9063 58.3403 66.5612 63.2523C64.3949 64.9466 63.2734 67.014 63.4116 69.7965C63.4577 70.9157 63.427 72.0504 63.427 73.1696C63.427 73.3561 63.427 73.5582 63.427 73.7914C62.4744 73.7914 61.5526 73.7914 60.5386 73.7914C60.5386 76.1696 60.5386 78.4857 60.5386 80.8018C56.5594 80.8018 52.5649 80.8018 48.5704 80.8018ZM54.6544 46.2779C54.7312 46.1846 54.8541 46.0292 54.977 45.8893C56.3597 44.2571 58.0651 43.0602 60.1853 42.8271C62.2901 42.5939 64.4256 42.6872 66.5612 42.625C66.5919 42.625 66.6226 42.6716 66.6841 42.7183C66.6841 44.366 66.7148 46.0292 66.6841 47.6924C66.5919 52.3402 62.9661 56.1952 58.3724 56.5682C57.6964 56.6304 57.005 56.6304 56.329 56.6615C56.329 58.7755 56.329 60.8274 56.329 62.8637C56.3904 62.8948 56.4212 62.9259 56.4519 62.9259C58.2034 62.9259 59.9394 62.9414 61.6909 62.9259C61.8445 62.9259 62.0443 62.8015 62.1672 62.6772C62.9046 61.9932 63.5806 61.2471 64.3488 60.6098C69.1115 56.6304 71.201 51.5474 70.356 45.3452C69.173 36.6404 60.8766 30.3916 52.2884 31.8217C45.7127 32.9098 41.2112 36.7959 39.2907 43.2157C37.3395 49.7287 39.1525 55.3869 44.0842 60.0035C45.0675 60.9207 46.0507 61.8533 47.0494 62.7549C47.1723 62.8637 47.3874 62.9103 47.5717 62.9103C48.6011 62.9259 49.6458 62.9103 50.6752 62.9103C51.3819 62.9103 52.0886 62.9103 52.7954 62.9103C52.7954 60.7652 52.7954 58.6978 52.7954 56.5993C52.3805 56.5993 51.9965 56.5993 51.6124 56.5993C46.3426 56.5061 42.471 52.5267 42.4403 47.195C42.4403 45.8582 42.4403 44.5214 42.4403 43.169C42.4403 42.9825 42.4556 42.796 42.471 42.625C44.3761 42.625 46.2505 42.5628 48.0941 42.6405C49.907 42.7183 51.5202 43.4644 52.9183 44.6302C53.5021 45.1587 54.0398 45.7183 54.6544 46.2779ZM60.1853 66.4855C56.4365 66.4855 52.6417 66.4855 48.9237 66.4855C49.0159 67.7757 49.1081 69.0192 49.2003 70.2783C52.78 70.2783 56.3597 70.2783 59.8934 70.2783C60.0009 69.0037 60.0931 67.7602 60.1853 66.4855ZM45.9585 46.138C45.3286 50.6614 48.7394 53.677 52.78 53.0708C53.3792 48.7961 50.3065 45.6561 45.9585 46.138ZM56.3444 53.0708C60.5079 53.677 63.7957 50.5371 63.1658 46.1691C59.1713 45.5318 55.7298 48.5629 56.3444 53.0708ZM57.0818 73.8535C55.3611 73.8535 53.7018 73.8535 52.0425 73.8535C52.0425 75.0194 52.0425 76.1541 52.0425 77.2733C53.7479 77.2733 55.4072 77.2733 57.0818 77.2733C57.0818 76.123 57.0818 75.0038 57.0818 73.8535Z" fill="#198ABF"/>
</mask>
<g mask="url(#mask0_301_156)">
<path d="M42.0681 41.073H67.9271L67.4298 52.0134L60.9651 62.9537H48.0356L41.5708 52.0134L42.0681 41.073Z" fill="#1AAD21"/>
</g>
</svg>
