<svg width="109" height="109" viewBox="0 0 109 109" fill="none" xmlns="http://www.w3.org/2000/svg">
<rect x="0.5" y="0.5" width="108" height="108" rx="11.5" stroke="black" stroke-opacity="0.12"/>
<path d="M46.8042 25.9973C52.2729 25.9973 57.7417 25.9973 63.2104 25.9973C63.2104 27.4556 63.225 28.914 63.1958 30.3723C63.1958 30.6931 63.2833 30.8536 63.6042 30.9556C66.1708 31.9181 68.5042 33.2598 70.6042 35.0244C70.9104 35.2723 71.1146 35.2431 71.4062 35.0681C72.5146 34.4119 73.6375 33.7848 74.8042 33.114C77.5458 37.8536 80.2583 42.564 83 47.3181C81.8479 47.9744 80.7396 48.6306 79.6021 49.2577C79.2958 49.4327 79.1792 49.5786 79.2375 49.9723C79.5729 51.8973 79.7188 53.8369 79.5146 55.7911C79.4271 56.6806 79.3104 57.5556 79.2083 58.4452C80.4625 59.1306 81.7021 59.8015 82.9854 60.4869C80.2437 65.2411 77.5167 69.9661 74.775 74.6911C73.5938 74.0494 72.4854 73.4661 71.3917 72.8536C71.1 72.6931 70.9104 72.6786 70.6333 72.9119C68.5187 74.6765 66.1708 76.0473 63.5896 77.0098C63.2833 77.1265 63.1813 77.2723 63.1813 77.5931C63.1958 79.0515 63.1958 80.5098 63.1958 81.9681C57.7271 81.9681 52.2583 81.9681 46.7896 81.9681C46.7896 80.5244 46.775 79.0952 46.8042 77.6515C46.8042 77.2869 46.7021 77.1119 46.3521 76.9806C43.7854 76.0327 41.4521 74.6619 39.3521 72.9119C39.075 72.6931 38.8854 72.6786 38.5938 72.8536C37.4854 73.4661 36.3625 74.064 35.225 74.6765C35.0938 74.4723 34.9917 74.3119 34.8896 74.1369C33.2854 71.3515 31.6813 68.5515 30.0625 65.7661C29.0417 64.0306 28.0208 62.2952 27 60.5598C27 60.5161 27 60.4869 27 60.4431C27.9042 59.9765 28.8083 59.5098 29.6979 59.0286C30.7625 58.4598 30.7625 58.4598 30.6167 57.2786C30.6167 57.2202 30.6167 57.1765 30.6021 57.1181C30.2667 54.6973 30.3396 52.2911 30.7333 49.8848C30.7625 49.739 30.7042 49.4911 30.6021 49.4327C29.4062 48.7765 28.1958 48.164 27 47.5223C27 47.4786 27 47.4494 27 47.4056C27.1021 47.2452 27.2188 47.0702 27.3208 46.9098C29.8292 42.564 32.3521 38.2036 34.8604 33.8577C34.9625 33.6681 35.0792 33.4931 35.2104 33.2598C36.3771 33.8869 37.5146 34.4848 38.6521 35.1119C38.9146 35.2577 39.075 35.2577 39.3229 35.0536C41.4521 33.2744 43.8146 31.889 46.4104 30.9265C46.7167 30.8098 46.8188 30.6494 46.8042 30.3286C46.7896 28.914 46.7896 27.4556 46.8042 25.9973ZM36.4646 70.3015C37.5 69.7473 38.5062 69.2077 39.4979 68.6827C39.5708 68.7265 39.6 68.7411 39.6292 68.7702C42.4875 71.6286 45.8271 73.6411 49.75 74.6765C50.0417 74.7494 50.1 74.9098 50.1 75.1869C50.0854 76.2077 50.1 77.2286 50.1 78.2494C50.1 78.4098 50.1146 78.5556 50.1292 78.7015C53.425 78.7015 56.6625 78.7015 59.9437 78.7015C59.9437 77.6369 59.9875 76.6015 59.9292 75.5661C59.9 74.9827 60.0604 74.7202 60.6583 74.5598C62.7437 74.0202 64.7271 73.1598 66.5062 71.9348C67.9062 70.9577 69.2188 69.8494 70.6333 68.7556C71.5229 69.2369 72.5292 69.7765 73.5792 70.3306C75.2125 67.4869 76.8458 64.6723 78.4937 61.814C77.575 61.3181 76.7 60.8369 75.825 60.3702C75.5479 60.2244 75.4896 60.0931 75.5479 59.7869C75.8104 58.5181 76.0729 57.2494 76.2333 55.9806C76.5687 53.3994 76.2188 50.8619 75.5625 48.3536C75.475 48.0036 75.5333 47.8431 75.8542 47.6681C76.7437 47.1869 77.6187 46.6619 78.5375 46.1369C76.875 43.264 75.2562 40.4494 73.6083 37.6202C72.5292 38.2327 71.5375 38.8015 70.5167 39.3848C67.5708 36.3515 64.0562 34.2952 59.9437 33.2598C59.9437 31.9327 59.9437 30.6494 59.9437 29.3369C56.6479 29.3369 53.3958 29.3369 50.1 29.3369C50.1 30.4015 50.0562 31.4369 50.1146 32.4723C50.1437 33.0556 49.9688 33.3181 49.3854 33.4786C47.2562 34.0327 45.2437 34.9077 43.45 36.1765C42.0792 37.139 40.8104 38.2181 39.425 39.2973C38.5208 38.8161 37.5146 38.2765 36.4792 37.7223C34.8021 40.5369 33.1833 43.3515 31.5354 46.1952C32.5708 46.764 33.5479 47.289 34.5396 47.8286C34.5104 47.9598 34.4958 48.0473 34.4812 48.1348C33.475 51.8244 33.3875 55.5431 34.3354 59.2619C34.5542 60.1515 34.5542 60.1515 33.7375 60.589C33.0083 60.9827 32.2792 61.3765 31.5354 61.7848C33.1979 64.6577 34.8167 67.4723 36.4646 70.3015Z" fill="#198ABF"/>
<path d="M36.9458 53.9683C36.9604 44.0224 45.0833 35.9287 55.0291 35.9578C64.975 35.987 73.0396 44.0808 73.0396 53.9974C73.0396 63.9433 64.9166 72.0516 54.9708 72.037C45.025 72.037 36.9458 63.9141 36.9458 53.9683ZM40.2271 53.9683C40.2125 62.1058 46.8041 68.7266 54.9271 68.7558C63.0791 68.7849 69.7291 62.1641 69.7437 54.012C69.7583 45.8599 63.1229 39.2245 54.9708 39.2245C46.8771 39.2245 40.2416 45.8453 40.2271 53.9683Z" fill="#198ABF"/>
<path d="M56.5604 64.3514C55.4958 64.0014 54.5041 63.666 53.4541 63.316C54.3 60.7493 55.1458 58.2264 56.0062 55.6452C53.8041 55.6452 51.6604 55.6452 49.4437 55.6452C50.7854 51.6202 52.1125 47.6535 53.4396 43.6431C54.5041 43.9931 55.5104 44.3285 56.5458 44.6785C55.6854 47.2452 54.8541 49.7681 53.9937 52.3347C56.1812 52.3347 58.3104 52.3347 60.5562 52.3347C59.2146 56.3743 57.9021 60.3264 56.5604 64.3514Z" fill="#1AAD21"/>
</svg>
