<svg width="26" height="32" viewBox="0 0 26 32" fill="none" xmlns="http://www.w3.org/2000/svg">
<path d="M13 16C13.8937 16 14.6589 15.6867 15.2953 15.06C15.9318 14.4333 16.25 13.68 16.25 12.8C16.25 11.92 15.9318 11.1667 15.2953 10.54C14.6589 9.91333 13.8937 9.6 13 9.6C12.1062 9.6 11.3411 9.91333 10.7047 10.54C10.0682 11.1667 9.75 11.92 9.75 12.8C9.75 13.68 10.0682 14.4333 10.7047 15.06C11.3411 15.6867 12.1062 16 13 16ZM13 27.76C16.3042 24.7733 18.7552 22.06 20.3531 19.62C21.951 17.18 22.75 15.0133 22.75 13.12C22.75 10.2133 21.8089 7.83333 19.9266 5.98C18.0443 4.12667 15.7354 3.2 13 3.2C10.2646 3.2 7.95573 4.12667 6.07344 5.98C4.19115 7.83333 3.25 10.2133 3.25 13.12C3.25 15.0133 4.04896 17.18 5.64687 19.62C7.24479 22.06 9.69583 24.7733 13 27.76ZM13 32C8.63958 28.3467 5.38281 24.9533 3.22969 21.82C1.07656 18.6867 0 15.7867 0 13.12C0 9.12 1.30677 5.93333 3.92031 3.56C6.53385 1.18667 9.56042 0 13 0C16.4396 0 19.4661 1.18667 22.0797 3.56C24.6932 5.93333 26 9.12 26 13.12C26 15.7867 24.9234 18.6867 22.7703 21.82C20.6172 24.9533 17.3604 28.3467 13 32Z" fill="#1AAD21"/>
</svg>
