<svg width="24" height="25" viewBox="0 0 24 25" fill="none" xmlns="http://www.w3.org/2000/svg">
<path d="M12 12.4999C12.55 12.4999 13.0208 12.3041 13.4125 11.9124C13.8042 11.5208 14 11.0499 14 10.4999C14 9.94994 13.8042 9.47911 13.4125 9.08744C13.0208 8.69577 12.55 8.49994 12 8.49994C11.45 8.49994 10.9792 8.69577 10.5875 9.08744C10.1958 9.47911 10 9.94994 10 10.4999C10 11.0499 10.1958 11.5208 10.5875 11.9124C10.9792 12.3041 11.45 12.4999 12 12.4999ZM12 19.8499C14.0333 17.9833 15.5417 16.2874 16.525 14.7624C17.5083 13.2374 18 11.8833 18 10.6999C18 8.88327 17.4208 7.39577 16.2625 6.23744C15.1042 5.07911 13.6833 4.49994 12 4.49994C10.3167 4.49994 8.89583 5.07911 7.7375 6.23744C6.57917 7.39577 6 8.88327 6 10.6999C6 11.8833 6.49167 13.2374 7.475 14.7624C8.45833 16.2874 9.96667 17.9833 12 19.8499ZM12 22.4999C9.31667 20.2166 7.3125 18.0958 5.9875 16.1374C4.6625 14.1791 4 12.3666 4 10.6999C4 8.19994 4.80417 6.20827 6.4125 4.72494C8.02083 3.24161 9.88333 2.49994 12 2.49994C14.1167 2.49994 15.9792 3.24161 17.5875 4.72494C19.1958 6.20827 20 8.19994 20 10.6999C20 12.3666 19.3375 14.1791 18.0125 16.1374C16.6875 18.0958 14.6833 20.2166 12 22.4999Z" fill="#073348"/>
</svg>
