<svg width="109" height="109" viewBox="0 0 109 109" fill="none" xmlns="http://www.w3.org/2000/svg">
<rect width="109" height="109" fill="#F3F3F3"/>
<g clip-path="url(#clip0_301_103)">
<rect width="1920" height="6634" transform="translate(-713 -1064)" fill="white"/>
<rect x="0.5" y="0.5" width="108" height="108" rx="11.5" stroke="black" stroke-opacity="0.12"/>
<path d="M49.2648 84C49.2042 83.8925 49.1739 83.7543 49.0829 83.6621C47.5666 81.7272 46.02 79.8076 44.5189 77.8572C44.2763 77.5501 44.0792 77.4887 43.7152 77.5962C41.3802 78.2872 39.0299 78.9629 36.6797 79.654C36.5736 79.6847 36.4674 79.7154 36.2551 79.7615C38.4841 72.6819 40.6827 65.6792 42.8965 58.6303C42.6842 58.5228 42.4871 58.4153 42.2899 58.3232C39.3787 57.0639 37.6198 54.96 37.3924 51.6583C37.3014 50.2915 36.7858 49.063 36.1187 47.8805C35.3757 46.5598 34.8147 45.1469 35.0573 43.6112C35.2089 42.5823 35.497 41.5227 35.9822 40.632C36.8162 39.0656 37.3165 37.4378 37.544 35.6871C37.8321 33.3067 39.0148 31.51 41.1679 30.4811C42.9268 29.6211 44.4431 28.5154 45.7774 27.0718C47.3998 25.3058 49.462 24.6608 51.7819 25.1676C53.7682 25.5976 55.7242 25.4286 57.6954 25.1061C59.6362 24.7836 61.3344 25.3365 62.7749 26.6725C62.8052 26.7033 62.8356 26.7186 62.8659 26.7493C64.3518 28.4079 66.0956 29.6671 68.0971 30.6346C70.2957 31.7096 71.2509 33.706 71.5087 36.0556C71.6755 37.6067 72.2517 39.0042 72.8885 40.4016C73.3434 41.3845 73.7225 42.4288 73.9196 43.4884C74.1925 44.9012 73.7376 46.2373 73.0553 47.4658C72.2062 48.9862 71.6603 50.5987 71.4784 52.334C71.1751 55.0522 69.6891 56.9104 67.2631 58.0314C67.0357 58.1389 66.8234 58.2464 66.5959 58.3693C66.5808 58.3846 66.5656 58.4 66.4898 58.4921C68.6884 65.5102 70.9173 72.5898 73.1766 79.7615C72.9037 79.6847 72.7065 79.6386 72.4943 79.5772C70.235 78.9169 67.9909 78.2719 65.7317 77.5962C65.3829 77.4887 65.1706 77.5194 64.928 77.8419C63.4724 79.7308 61.9713 81.589 60.5005 83.4625C60.3792 83.6007 60.2579 83.7389 60.0759 83.9693C58.3019 78.3179 56.543 72.7434 54.7993 67.1688C54.7538 67.1688 54.7234 67.1688 54.678 67.1688C54.3141 68.3359 53.935 69.5184 53.5711 70.6855C52.1761 75.1237 50.7963 79.5618 49.4013 83.9846C49.3407 84 49.3103 84 49.2648 84ZM50.6447 28.5154C49.6894 28.5 49.0677 28.6843 48.6128 29.1911C46.7933 31.1414 44.716 32.6925 42.3051 33.8135C41.6228 34.136 41.1831 34.7657 41.0769 35.5181C40.7433 38.1288 39.9852 40.6013 38.7115 42.9048C38.3021 43.642 38.3628 44.4559 38.6964 45.2391C38.8631 45.6077 39.0148 45.9762 39.2119 46.3294C40.1368 47.9419 40.6827 49.6926 40.8495 51.5508C40.9859 53.1018 41.6683 54.2229 43.1239 54.8372C44.9738 55.6204 46.5507 56.7875 47.8547 58.3232C48.8858 59.521 50.1291 59.8589 51.6302 59.5057C53.2678 59.1371 54.9206 59.0757 56.6036 59.3828C59.4239 59.905 59.621 59.8435 61.6225 57.7703C62.6233 56.7261 63.7453 55.8507 65.0342 55.2365C65.4436 55.0368 65.8378 54.8065 66.2472 54.6068C67.2934 54.1 67.8848 53.2554 68.0061 52.1036C68.2487 49.8615 68.8855 47.7576 70.0076 45.8073C70.6747 44.6709 70.6747 43.5037 70.0076 42.3673C68.8704 40.417 68.2335 38.3131 67.9909 36.071C67.8696 34.9192 67.2934 34.0592 66.232 33.5678C66.0046 33.4603 65.8075 33.3221 65.58 33.2146C63.8666 32.4621 62.3958 31.3718 61.1828 29.9282C60.1063 28.6536 58.8174 28.2697 57.2102 28.6536C55.6939 29.0068 54.1321 29.0836 52.5855 28.8072C51.8728 28.6843 51.1147 28.5922 50.6447 28.5154ZM57.0737 62.9763C58.5293 67.5988 59.9395 72.1137 61.3951 76.7362C61.8955 76.1065 62.3049 75.569 62.7294 75.0469C63.154 74.5248 63.5027 73.7569 64.0334 73.588C64.5641 73.4191 65.2919 73.8491 65.9288 74.0333C66.5808 74.2176 67.2176 74.4019 67.9454 74.6169C66.4746 69.933 65.0342 65.372 63.5785 60.7035C61.7893 62.7306 59.6665 63.5138 57.0737 62.9763ZM41.5015 74.5555C41.6986 74.5248 41.8351 74.5094 41.9715 74.4787C42.9874 74.1869 44.0185 73.9105 45.0192 73.588C45.3528 73.4805 45.5348 73.5419 45.7319 73.8183C46.3687 74.6476 47.0359 75.4615 47.6727 76.2908C47.7789 76.4137 47.8244 76.5826 47.9002 76.7208C47.9608 76.6747 48.0215 76.6287 48.067 76.5826C49.4923 72.0523 50.9176 67.522 52.3581 62.9149C49.7955 63.4678 47.5969 63.0071 45.7167 61.0721C44.3218 65.6024 42.9268 70.0405 41.5015 74.5555Z" fill="#198ABF"/>
<path d="M57.9704 38.8167C58.8903 39.7472 59.76 40.5931 60.5628 41.4051C58.2045 43.7906 55.8296 46.193 53.4881 48.5616C51.8825 46.9374 50.21 45.2287 48.5709 43.5876C49.3904 42.7586 50.2601 41.8789 51.1967 40.9484C51.8992 41.6928 52.6686 42.5218 53.5048 43.4015C55.0602 41.7943 56.4986 40.3055 57.9704 38.8167Z" fill="#1AAD21"/>
</g>
<defs>
<clipPath id="clip0_301_103">
<rect width="1920" height="6634" fill="white" transform="translate(-713 -1064)"/>
</clipPath>
</defs>
</svg>
