<svg width="16" height="16" viewBox="0 0 16 16" fill="none" xmlns="http://www.w3.org/2000/svg">
<path d="M12.5233 11.0001L15.7355 14.2116L14.6743 15.2729L11.4628 12.0606C10.2678 13.0185 8.7815 13.5395 7.25 13.5374C3.524 13.5374 0.5 10.5134 0.5 6.78735C0.5 3.06135 3.524 0.0373535 7.25 0.0373535C10.976 0.0373535 14 3.06135 14 6.78735C14.0022 8.31886 13.4812 9.80516 12.5233 11.0001ZM11.0188 10.4436C11.9706 9.46477 12.5022 8.15268 12.5 6.78735C12.5 3.88635 10.1503 1.53735 7.25 1.53735C4.349 1.53735 2 3.88635 2 6.78735C2 9.6876 4.349 12.0374 7.25 12.0374C8.61532 12.0395 9.92741 11.5079 10.9063 10.5561L11.0188 10.4436Z" fill="#073348"/>
</svg>
